<?xml version="1.0" encoding="utf-8"?>
<!-- Generator: Adobe Illustrator 24.0.3, SVG Export Plug-In . SVG Version: 6.00 Build 0)  -->
<svg version="1.1" id="Layer_1" xmlns="http://www.w3.org/2000/svg" xmlns:xlink="http://www.w3.org/1999/xlink" x="0px" y="0px"
	 viewBox="0 0 2462.5 2442.9" style="enable-background:new 0 0 2462.5 2442.9;" xml:space="preserve">
<style type="text/css">
	.st0{fill:#FFFFFF;}
	.st1{fill:#F9D01E;}
	.st2{fill:#F1F2F2;}
	.st3{font-family:'Futura-Medium';}
	.st4{font-size:17.8879px;}
	.st5{fill:#F16144;}
	.st6{fill:#010101;}
</style>
<g>
	
		<image style="overflow:visible;opacity:0.2;" width="1632" height="1518" xlink:href="C33C974753ED12FC.png"  transform="matrix(1 0 0 1 62.9239 564.14)">
	</image>
	<g>
		<rect x="164.4" y="665.8" class="st0" width="1414.5" height="1300.6"/>
	</g>
</g>
<g>
	<rect x="276.5" y="790.9" class="st1" width="1190.3" height="1008.9"/>
	<g id="_x35_hdmpl.tif">
		
			<image style="overflow:visible;enable-background:new    ;" width="381" height="354" id="Layer_0_1_" xlink:href="C33C974753ED12FD.png"  transform="matrix(2.6796 0 0 2.6796 351.9434 966.8926)">
		</image>
	</g>
	<g>
		<g>
			
				<image style="overflow:visible;opacity:0.2;enable-background:new    ;" width="708" height="417" xlink:href="C33C974753ED12FE.png"  transform="matrix(0.4242 0 0 0.4242 731.5956 1650.73)">
			</image>
			<g>
				
					<rect x="748.9" y="1678.9" transform="matrix(0.9932 -0.1164 0.1164 0.9932 -195.0847 112.8842)" class="st2" width="240.2" height="95.7"/>
			</g>
		</g>
		<text transform="matrix(0.9926 -0.1215 0.1215 0.9926 767.939 1714.0027)" class="st3 st4">Chief Executive Pawfficer</text>
		<g>
			<path class="st5" d="M965.7,1744c-1.1,0.1-2.2-0.1-3.3-0.3l-1.5,6.4c1.8,0.4,3.6,0.6,5.4,0.6L965.7,1744z M978.8,1739
				c-1.4,0-3.5,1-5,2.1c-0.2,0.1-0.3,0.2-0.5,0.3l1.9,7.1c2.8-1.3,5.7-2.7,6.3-3.6C983.5,1741.8,981.6,1738.9,978.8,1739z
				 M968.1,1743.6l0.6,6.9c0.2,0,0.5-0.1,0.7-0.1c1.2-0.2,2.3-0.4,3.4-0.9l-1.9-6.9C970.1,1743.1,969.1,1743.4,968.1,1743.6z
				 M954,1743c-0.9,0-1.8-0.1-2.9-0.1c-1.8-0.1-3.4,0-4.8,0.2c-5.9,0.8-8,3.3-8.1,3.5l0,0c-0.8,1-1.5,1.8-2,2.3s-1.1,1.2-1.7,1.7
				c-0.6,0.5-1.3,0.9-2,1.3c-0.7,0.3-1.5,0.5-2.4,0.6c-1.3,0.2-2.6,0-3.8-0.6s-2.2-1.4-3-2.6c-0.8-1.2-1.3-2.7-1.5-4.4l14.7-1.8
				c2-0.2,3.5-0.7,4.5-1.4c1-0.7,1.4-2,1.2-3.8c-0.2-2-1-4-2.3-5.8c-1.3-1.8-3-3.2-5.3-4.2c-2.2-1-4.8-1.3-7.7-0.9
				c-2.3,0.3-4.2,0.8-6,1.8c-1.8,0.9-3.2,2.1-4.3,3.6c-1.1,1.5-1.9,3.2-2.3,5.2c-0.4,2-0.5,4-0.3,6.3c0.6,4.7,2.3,8.3,5.3,10.7
				c3,2.4,6.9,3.3,11.7,2.8c2.1-0.3,3.9-0.8,5.5-1.5c1.6-0.8,2.8-1.6,3.8-2.6c0.4-0.4,0.8-0.8,1.1-1.3c1.3-1.6,3.5-2.7,5.9-3.3
				c2.7-0.7,5.6-0.7,7.5-0.2c0.5,0.1,0.9,0.2,1.2,0.4c0.4,0.2,2.6,0.8,3.8,1l0-6.6C958.3,1743.2,956.4,1743.2,954,1743z
				 M922.6,1734.7c1-1.4,2.5-2.3,4.4-2.5c2-0.2,3.6,0.2,4.9,1.3c1.3,1.1,2.3,3,2.8,5.5l-13.6,1.6
				C921.1,1738.1,921.6,1736.1,922.6,1734.7z"/>
			<g>
				<path class="st5" d="M790.2,1739.1c1.3-0.2,2.2-0.6,2.8-1.2c0.6-0.6,0.8-1.5,0.7-2.4c-0.1-0.9-0.5-1.6-1.2-2.1s-1.7-0.7-3-0.5
					l-19.1,2.3c-1.2,0.1-2.1,0.4-2.8,0.8c-0.7,0.4-1.2,1.1-1.4,1.8c-0.3,0.8-0.3,1.7-0.2,2.9l3.7,30.9c0.2,1.7,0.7,2.9,1.6,3.6
					c0.9,0.8,1.9,1,3.1,0.9c1.2-0.1,2.1-0.7,2.8-1.6c0.6-0.9,0.9-2.2,0.7-3.9l-1.6-13.3l13.4-1.6c1.2-0.1,2.1-0.5,2.6-1.2
					c0.6-0.6,0.8-1.4,0.7-2.4c-0.1-0.9-0.5-1.6-1.2-2.1c-0.7-0.5-1.7-0.7-2.9-0.5l-13.4,1.6l-1.2-10.2L790.2,1739.1z"/>
				<path class="st5" d="M823.2,1740.5c-0.8-0.6-1.7-0.9-2.8-0.8c-1.1,0.1-2,0.6-2.6,1.4s-0.8,2-0.6,3.5l1.1,9.1
					c0.4,3.6,0.5,5.9,0.2,7c-0.4,1.3-1.1,2.3-2.1,3.2c-1,0.9-2.2,1.4-3.4,1.5c-1.3,0.2-2.3-0.1-3.2-0.6s-1.5-1.4-1.9-2.6
					c-0.4-1.1-0.8-2.6-1-4.3l-1.4-11.9c-0.2-1.5-0.6-2.5-1.5-3.2c-0.8-0.6-1.8-0.9-2.9-0.8c-1.1,0.1-2,0.6-2.6,1.4
					c-0.6,0.8-0.8,2-0.6,3.5l1.8,14.8c0.4,3,1.1,5.2,2.2,6.7c0.9,1.2,2.2,2.1,3.7,2.7c1.5,0.6,3.2,0.8,5,0.5c1.5-0.2,2.8-0.5,3.9-1
					c1.1-0.5,2.1-1.2,3-2.1c0.9-0.9,1.7-2,2.5-3.2l0.1,0.9c0.2,1.3,0.6,2.3,1.4,3c0.8,0.7,1.6,0.9,2.7,0.8c1-0.1,1.8-0.6,2.4-1.4
					c0.6-0.8,0.7-1.9,0.6-3.3l-2.6-21.7C824.5,1742.3,824,1741.2,823.2,1740.5z"/>
				<path class="st5" d="M847.5,1737.7c-1.6-0.6-3.2-0.8-4.7-0.6c-1.6,0.2-2.8,0.7-3.6,1.6c-0.9,0.9-1.6,2.2-2.3,3.8
					c-0.2-1.5-0.7-2.6-1.3-3.4c-0.7-0.7-1.6-1-2.8-0.9c-2.4,0.3-3.5,2.1-3,5.5l2.5,20.8c0.2,1.5,0.6,2.6,1.5,3.3
					c0.8,0.7,1.7,1,2.8,0.9c1.1-0.1,2-0.6,2.6-1.4c0.6-0.8,0.8-2,0.7-3.6l-0.8-6.3c-0.3-2.3-0.4-4.2-0.5-5.8c0-1.6,0.1-3,0.3-4.1
					c0.3-1.2,0.7-2.1,1.3-2.8c0.6-0.6,1.5-1,2.6-1.2c0.8-0.1,1.8,0,2.9,0.2c1.1,0.2,1.8,0.3,2,0.3c0.7-0.1,1.4-0.4,1.9-1.1
					c0.5-0.7,0.8-1.5,0.7-2.4C850,1739.3,849.1,1738.3,847.5,1737.7z"/>
				<path class="st5" d="M884.6,1756.6c-0.8-0.5-1.7-0.7-3-0.6l-19,2.3l-1.4-11.4l16.9-2c1.2-0.1,2.2-0.5,2.7-1.2
					c0.5-0.6,0.8-1.4,0.6-2.3c-0.1-0.9-0.5-1.6-1.2-2.1s-1.6-0.7-2.8-0.5l-17,2l-1.2-9.9l18.4-2.2c1.3-0.2,2.2-0.6,2.8-1.2
					c0.6-0.6,0.8-1.5,0.7-2.4c-0.1-0.9-0.5-1.6-1.2-2.1c-0.7-0.5-1.7-0.7-3-0.5l-21.5,2.6c-1.2,0.1-2.1,0.4-2.8,0.8
					c-0.7,0.4-1.2,1.1-1.4,1.8s-0.3,1.8-0.2,2.9l3.6,30.1c0.2,1.7,0.8,3,1.6,3.7s2.2,0.9,4,0.7l22.1-2.6c1.3-0.2,2.2-0.6,2.8-1.2
					c0.5-0.7,0.8-1.5,0.7-2.4C885.7,1757.8,885.3,1757.1,884.6,1756.6z"/>
				<path class="st5" d="M910.3,1730c-0.8-0.5-1.6-0.8-2.5-0.7c-1,0.1-1.7,0.5-2.1,1.2c-0.4,0.7-0.8,1.8-1.2,3.2l-4.4,18.5
					l-8.1-16.3c-0.8-1.6-1.4-2.7-2-3.4c-0.6-0.7-1.5-0.9-2.7-0.8c-0.6,0.1-1.2,0.3-1.7,0.7c-0.5,0.3-0.9,0.8-1.1,1.4
					c-0.3,0.5-0.3,1.1-0.3,1.6c0,0.3,0.1,0.7,0.3,1.2c0.2,0.4,0.4,0.9,0.6,1.3c0.2,0.4,0.4,0.9,0.7,1.2l9.2,16.8
					c0.9,1.6,1.6,2.7,1.9,3.2s0.9,1,1.6,1.4c0.7,0.4,1.5,0.6,2.6,0.4c0.8-0.1,1.5-0.4,2-0.7c0.5-0.4,1-0.9,1.3-1.5
					c0.3-0.6,0.6-1.3,0.8-2.1c0.3-0.8,0.4-1.5,0.6-2.1l5.1-18.7c0.2-0.5,0.3-1,0.4-1.4c0.1-0.4,0.2-0.8,0.3-1.3
					c0.1-0.5,0.1-0.9,0-1.1C911.5,1731.3,911.1,1730.6,910.3,1730z"/>
				<path class="st5" d="M962.7,1724c-1.6-0.6-3.2-0.8-4.7-0.6c-1.6,0.2-2.8,0.7-3.6,1.6c-0.9,0.9-1.6,2.2-2.3,3.8
					c-0.2-1.5-0.7-2.6-1.3-3.4c-0.6-0.7-1.6-1-2.8-0.9c-2.4,0.3-3.5,2.1-3,5.5l2.5,20.8c0.2,1.5,0.6,2.6,1.5,3.3
					c0.8,0.7,1.7,1,2.8,0.9c1.1-0.1,2-0.6,2.6-1.4s0.8-2,0.7-3.6l-0.8-6.3c0-0.2-0.1-0.4-0.1-0.7c-0.2-2-0.4-3.6-0.4-5
					c0-1.6,0.1-3,0.3-4.1c0.3-1.2,0.7-2.1,1.3-2.8c0.6-0.6,1.5-1,2.6-1.2c0.8-0.1,1.8,0,2.9,0.2s1.8,0.3,2,0.3
					c0.7-0.1,1.4-0.4,1.9-1.1c0.5-0.7,0.8-1.5,0.7-2.4C965.1,1725.5,964.2,1724.6,962.7,1724z"/>
			</g>
			<polygon class="st5" points="779.3,1731 793,1729.4 784.7,1718 			"/>
			<path class="st5" d="M772.4,1730.8l-5,1.6c-1.7,0.5-3,1.3-3.9,2.1c-0.9,0.9-1.4,1.9-1.6,3.1c-0.1,0.6,0,1.2,0.1,1.8H762
				l-2.5-13.8L772.4,1730.8z"/>
		</g>
	</g>
	<g>
		<path class="st6" d="M1307.7,1143.3c-83.9-16.2-178.8-6.4-258.4,14.8c-38.8,10.4-69.2,29-111.9,25.6
			c-36.3-2.9-73.1-11.7-111.4-13.8c-76.2-4.2-156.5,4.9-213.7,30.6c2.4,13.7,6.4,25.5,7.5,40.7c26,10.3,31.2,53.9,42.9,84.8
			c8.5,22.6,16,44.9,34.6,57.9c51.3,35.8,152.7,10.7,188.7-24.5c13.8-13.5,32.3-42.9,41.4-66.6c10-26.3,14.7-68.9,39.1-70.3
			c17.6-1,32.8,31.4,46.3,56.9c31.9,60,76.3,97.8,161.4,90.1c67.7-6.1,93.9-32.5,106.7-84.1c8.1-32.7,3.2-88.5,28.5-100.9
			C1306.5,1168.8,1309.9,1158.5,1307.7,1143.3z M632.3,1226.3c-2.1-15.5,24.7-11.8,32.7-8.8C664.9,1230.1,641.9,1226.9,632.3,1226.3
			z M892.5,1321.5c-32.6,52.1-152,92.5-195.8,32.9c-10.2-13.8-33.9-85-22.4-120c8.5-25.8,36.9-36.3,82.8-42.7
			c46.6-6.4,123.7-10,144.9,14.8C929.1,1238,908.6,1295.8,892.5,1321.5z M1248.3,1317.8c-5.7,7.4-14.3,14.2-20.1,17.5
			c-84.9,48.4-206-23.1-206.6-111.7c-0.3-50.8,63.4-58.8,126-66.1c44.6-5.3,93.8-5.1,110.5,25.7
			C1278.2,1220.5,1265,1296.2,1248.3,1317.8z M1265,1172.7c0.7-9.7,28.1-9.9,33-4.9C1297.4,1177.5,1270,1177.7,1265,1172.7z"/>
	</g>
</g>
<g>
	
		<image style="overflow:visible;opacity:0.2;" width="1256" height="1138" xlink:href="C33C974753ED12FB.png"  transform="matrix(1 0 0 1 1208.4916 293.2672)">
	</image>
	<g>
		<path class="st0" d="M2348.4,790.9c0,218.8-223.7,396.1-499.7,396.1c-40.2,0-79.3-3.8-116.8-10.9
			c-170.4,141.9-422.5,139.9-422.5,139.9c195.6-34.1,239.9-158.2,249.5-202.4c-127.1-71.8-209.9-189.6-209.9-322.7
			c0-218.8,223.7-396.1,499.7-396.1S2348.4,572.2,2348.4,790.9z"/>
	</g>
</g>
</svg>
