<?xml version="1.0" encoding="utf-8"?>
<!-- Generator: Adobe Illustrator 24.0.3, SVG Export Plug-In . SVG Version: 6.00 Build 0)  -->
<svg version="1.1" xmlns="http://www.w3.org/2000/svg" xmlns:xlink="http://www.w3.org/1999/xlink" x="0px" y="0px"
	 viewBox="0 0 1180.9 107.7" style="enable-background:new 0 0 1180.9 107.7;" xml:space="preserve">
<style type="text/css">
	.st0{fill:#F48478;}
</style>
<g id="Layer_1">
</g>
<g id="Layer_2">
	<g>
		<path class="st0" d="M2.6,86.9c0,0.3,0,0.6,0,0.9c0,0.3,0,0.5,0.1,0.8c0.4,1.7,1.4,2.9,2.9,3.6c0.3,0.1,0.7,0.2,1,0.3
			c0.5,0.1,1.1,0,1.6-0.1c0.9-0.1,1.8-0.4,2.7-0.7c1.7-0.6,3.2-1.5,4.7-2.4c1.8-1.2,3.5-2.5,5-4c0.9-0.9,1.7-1.9,2.3-3
			c0.5-0.8,0.9-1.7,1.2-2.6c0.3-1.1,0.3-2.2-0.1-3.2c-0.2-0.5-0.4-1-0.6-1.5c-0.7-1.4-1.6-2.7-2.7-3.8c-2.1-2.2-4.4-4.1-7-5.6
			c-1.4-0.8-2.8-1.5-4.4-1.9c-0.6-0.2-1.2-0.3-1.8-0.4C6.2,63,5,63.5,4.1,64.6c-0.6,0.7-1,1.5-1.2,2.4c-0.2,0.6-0.3,1.3-0.3,1.9
			c0,1,0,2.1,0.1,3.1c0.1,0.9,0.3,1.8,0.5,2.7c0.3,1.2,0.6,2.3,0.9,3.5c0.1,0.4,0.2,0.9,0.2,1.3c0.1,0.6-0.1,1.1-0.2,1.7
			c-0.2,0.6-0.4,1.2-0.7,1.8C2.8,84.3,2.6,85.5,2.6,86.9z M38.7,92.5C38.7,92.4,38.7,92.4,38.7,92.5c0.1,0,0.2,0,0.3,0
			c0.9,0,1.7-0.1,2.5-0.3c1.2-0.3,2.2-0.8,3.1-1.6c0.4-0.4,0.7-0.8,0.9-1.3c0.4-0.9,0.5-1.7,0.2-2.7c-0.2-0.5-0.4-1.1-0.7-1.6
			c-0.6-0.9-1.3-1.7-2.2-2.3c-2-1.4-4.2-2.3-6.6-2.6c-1.2-0.1-2.4-0.1-3.6,0.2c-0.9,0.2-1.7,0.5-2.4,1.1C29,82.3,28.2,83.5,28,85
			c-0.1,0.9,0,1.8,0.5,2.6c0.3,0.6,0.8,1.2,1.3,1.7c0.8,0.7,1.6,1.3,2.5,1.8c1.5,0.8,3.2,1.3,4.9,1.4C37.7,92.4,38.2,92.4,38.7,92.5
			z M35.8,78.4c1.6,0,3.1-0.3,4.6-0.8c1.3-0.4,2.4-1,3.5-1.8c0.9-0.7,1.7-1.5,2.2-2.6c0.4-0.8,0.6-1.7,0.4-2.6
			c-0.1-0.7-0.4-1.3-0.9-1.8c-0.6-0.7-1.3-1.2-2.1-1.6c-1.5-0.7-3.1-1-4.7-1c-0.9,0-1.8,0.1-2.6,0.3c-1.4,0.3-2.7,0.8-3.9,1.5
			c-1.2,0.7-2.1,1.6-2.9,2.7c-0.2,0.4-0.5,0.7-0.6,1.2c-0.3,0.9-0.3,1.7-0.2,2.6c0.1,0.4,0.2,0.8,0.5,1.1c0.6,0.8,1.5,1.4,2.4,1.8
			C32.9,78.2,34.3,78.4,35.8,78.4z M24.3,100.9c0.8,0,1.5,0,2.3-0.2c1-0.2,2-0.6,2.8-1.3c1-0.8,1.5-1.9,1.5-3.1
			c0.1-0.9-0.2-1.7-0.5-2.4c-0.8-1.6-2-2.9-3.5-3.8c-1.5-0.9-3.1-1.4-4.8-1.6c-0.8-0.1-1.6-0.1-2.4,0.1c-2.4,0.4-4.5,2.5-4.6,4.9
			c0,0.5,0,1,0.1,1.5c0.2,0.7,0.5,1.3,0.9,1.8c0.8,1,1.7,1.9,2.8,2.6c1.2,0.8,2.5,1.3,4,1.4C23.3,100.9,23.8,100.9,24.3,100.9z
			 M23.2,68.7c1,0,1.9-0.1,2.9-0.3c2.1-0.5,4-1.5,5.6-3.1c0.9-0.9,1.6-2,2-3.3c0.2-0.6,0.3-1.3,0.2-1.9c-0.2-0.9-0.5-1.6-1.2-2.2
			c-1-1-2.2-1.5-3.6-1.7c-0.8-0.1-1.6-0.1-2.5,0.1c-1.9,0.3-3.6,1-5.1,2.1c-1.3,1-2.4,2.2-3,3.6c-0.5,1.1-0.7,2.2-0.5,3.3
			c0.1,0.8,0.5,1.6,1.2,2.1c0.8,0.7,1.8,1.1,2.9,1.1C22.4,68.7,22.8,68.7,23.2,68.7z"/>
		<path class="st0" d="M2.6,86.9c0-1.3,0.3-2.6,0.8-3.8c0.2-0.6,0.5-1.2,0.7-1.8c0.2-0.5,0.3-1.1,0.2-1.7c0-0.4-0.1-0.9-0.2-1.3
			c-0.3-1.2-0.6-2.3-0.9-3.5C3,73.8,2.8,72.9,2.7,72c-0.1-1-0.1-2-0.1-3.1c0-0.6,0.1-1.3,0.3-1.9c0.2-0.9,0.6-1.7,1.2-2.4
			C5,63.5,6.2,63,7.6,63.1c0.6,0,1.2,0.2,1.8,0.4c1.5,0.4,3,1.1,4.4,1.9c2.6,1.5,5,3.4,7,5.6c1.1,1.1,2,2.4,2.7,3.8
			c0.2,0.5,0.4,1,0.6,1.5c0.4,1.1,0.4,2.1,0.1,3.2c-0.2,0.9-0.7,1.8-1.2,2.6c-0.7,1.1-1.5,2.1-2.3,3c-1.5,1.5-3.2,2.9-5,4
			c-1.5,1-3.1,1.8-4.7,2.4c-0.9,0.3-1.8,0.6-2.7,0.7c-0.5,0.1-1.1,0.1-1.6,0.1c-0.3,0-0.7-0.1-1-0.3c-1.6-0.7-2.5-1.9-2.9-3.6
			c-0.1-0.2-0.1-0.5-0.1-0.8C2.6,87.5,2.6,87.2,2.6,86.9z"/>
		<path class="st0" d="M38.7,92.5c-0.5,0-1,0-1.5,0c-1.7-0.1-3.4-0.6-4.9-1.4c-0.9-0.5-1.7-1.1-2.5-1.8c-0.5-0.5-1-1-1.3-1.7
			c-0.4-0.8-0.6-1.7-0.5-2.6c0.2-1.6,1-2.7,2.2-3.6c0.7-0.5,1.6-0.8,2.4-1.1c1.2-0.3,2.4-0.3,3.6-0.2c2.4,0.3,4.7,1.1,6.6,2.6
			c0.9,0.6,1.6,1.4,2.2,2.3c0.3,0.5,0.5,1,0.7,1.6c0.3,0.9,0.2,1.8-0.2,2.7c-0.2,0.5-0.5,0.9-0.9,1.3c-0.9,0.8-1.9,1.3-3.1,1.6
			c-0.8,0.2-1.7,0.3-2.5,0.3C38.9,92.4,38.8,92.4,38.7,92.5C38.7,92.4,38.7,92.4,38.7,92.5z"/>
		<path class="st0" d="M35.8,78.4c-1.5,0-2.9-0.2-4.2-0.8c-0.9-0.4-1.8-1-2.4-1.8c-0.3-0.3-0.4-0.7-0.5-1.1
			c-0.1-0.9-0.1-1.8,0.2-2.6c0.1-0.4,0.3-0.8,0.6-1.2c0.8-1.1,1.8-2,2.9-2.7c1.2-0.7,2.5-1.2,3.9-1.5c0.9-0.2,1.7-0.3,2.6-0.3
			c1.6,0,3.2,0.2,4.7,1c0.8,0.4,1.5,0.9,2.1,1.6c0.5,0.5,0.8,1.1,0.9,1.8c0.2,0.9,0,1.8-0.4,2.6c-0.5,1.1-1.3,1.9-2.2,2.6
			c-1.1,0.8-2.3,1.4-3.5,1.8C38.9,78.1,37.4,78.4,35.8,78.4z"/>
		<path class="st0" d="M24.3,100.9c-0.5,0-1,0-1.6-0.1c-1.4-0.2-2.8-0.6-4-1.4c-1.1-0.7-2-1.6-2.8-2.6c-0.4-0.6-0.7-1.2-0.9-1.8
			c-0.1-0.5-0.1-1-0.1-1.5c0.1-2.4,2.2-4.5,4.6-4.9c0.8-0.1,1.6-0.1,2.4-0.1c1.7,0.1,3.3,0.7,4.8,1.6c1.5,0.9,2.8,2.2,3.5,3.8
			c0.4,0.8,0.6,1.6,0.5,2.4c-0.1,1.2-0.6,2.3-1.5,3.1c-0.8,0.7-1.8,1.1-2.8,1.3C25.8,100.9,25.1,100.9,24.3,100.9z"/>
		<path class="st0" d="M23.2,68.7c-0.4,0-0.8,0-1.2,0c-1.1-0.1-2.1-0.5-2.9-1.1c-0.7-0.5-1-1.3-1.2-2.1c-0.2-1.2,0-2.3,0.5-3.3
			c0.7-1.5,1.7-2.7,3-3.6c1.5-1.1,3.2-1.8,5.1-2.1c0.8-0.1,1.6-0.1,2.5-0.1c1.4,0.1,2.6,0.7,3.6,1.7c0.6,0.6,1,1.4,1.2,2.2
			c0.1,0.7,0,1.3-0.2,1.9c-0.4,1.3-1.1,2.3-2,3.3c-1.6,1.6-3.4,2.6-5.6,3.1C25.2,68.6,24.2,68.7,23.2,68.7z"/>
	</g>
	<g>
		<path class="st0" d="M109.7,33.9c0,0.3,0,0.6,0,0.9c0,0.3,0,0.5,0.1,0.8c0.2,1,0.7,1.8,1.3,2.5c0.6,0.6,1.2,1,2,1.2
			c0.7,0.2,1.4,0.2,2.1,0.1c0.9-0.1,1.8-0.4,2.7-0.7c1.6-0.6,3.2-1.4,4.6-2.3c1.9-1.2,3.7-2.5,5.2-4.1c0.9-0.9,1.8-2,2.4-3.1
			c0.4-0.7,0.8-1.5,1.1-2.4c0.3-1.2,0.3-2.3-0.1-3.5c-0.2-0.5-0.4-1.1-0.7-1.6c-0.7-1.5-1.7-2.8-2.9-3.9c-2.2-2.3-4.7-4.1-7.4-5.7
			c-1.4-0.7-2.8-1.3-4.3-1.7c-0.5-0.1-0.9-0.2-1.4-0.2c-1.3,0-2.4,0.5-3.2,1.5c-0.5,0.6-0.9,1.3-1.1,2.1c-0.2,0.7-0.4,1.5-0.4,2.2
			c0,1,0,2,0.1,3.1c0.1,0.9,0.3,1.8,0.5,2.8c0.3,1.2,0.6,2.3,0.9,3.5c0.1,0.4,0.2,0.9,0.2,1.3c0.1,0.6-0.1,1.2-0.2,1.7
			c-0.2,0.6-0.4,1.2-0.7,1.8C110,31.3,109.7,32.5,109.7,33.9z M145.6,39.5c0.5,0,1,0,1.6-0.1c0.8-0.1,1.7-0.2,2.5-0.6
			c1-0.4,1.8-0.9,2.5-1.7c0.9-1.1,1.2-2.4,0.7-3.8c-0.3-1-0.9-1.9-1.7-2.7c-0.9-0.9-1.9-1.5-2.9-2.1c-1.6-0.8-3.2-1.3-4.9-1.4
			c-1.1-0.1-2.2,0-3.3,0.2c-0.8,0.2-1.6,0.4-2.3,0.9c-1.4,0.9-2.3,2.1-2.5,3.8c-0.1,0.9,0,1.8,0.5,2.6c0.3,0.5,0.7,1,1.1,1.4
			c0.9,0.9,2,1.6,3.1,2.2c1.2,0.6,2.5,1,3.9,1.1C144.3,39.5,145,39.5,145.6,39.5z M143.2,25.4c0.1,0,0.3,0,0.5,0
			c1.4-0.1,2.7-0.4,4-0.8c1.2-0.4,2.3-1,3.3-1.8c0.9-0.7,1.7-1.5,2.2-2.5c0.4-0.8,0.6-1.7,0.4-2.6c-0.1-0.6-0.4-1.2-0.8-1.7
			c-0.5-0.7-1.2-1.2-2-1.6c-1.3-0.7-2.7-1-4.2-1.1c-1,0-2,0.1-3,0.3c-1.4,0.3-2.7,0.7-3.9,1.4c-1.2,0.7-2.2,1.5-3,2.6
			c-0.3,0.4-0.6,0.9-0.7,1.4c-0.3,0.9-0.3,1.7-0.2,2.6c0.1,0.4,0.2,0.8,0.5,1.1c0.5,0.6,1.1,1.1,1.8,1.5c0.8,0.5,1.7,0.8,2.7,1
			C141.5,25.4,142.3,25.4,143.2,25.4z M131.4,47.9c0.5,0,1,0,1.4-0.1c0.9-0.1,1.8-0.4,2.6-0.8c0.6-0.3,1.1-0.7,1.5-1.2
			c1-1.2,1.2-2.5,0.9-3.9c-0.2-0.7-0.5-1.4-0.9-2c-0.9-1.4-2.1-2.4-3.6-3.2c-1.3-0.7-2.6-1.1-4.1-1.2c-0.9-0.1-1.7-0.1-2.6,0.1
			c-2.5,0.4-4.5,2.6-4.6,4.9c0,0.5,0,1,0.1,1.5c0.2,0.6,0.5,1.2,0.9,1.8c0.5,0.7,1.1,1.3,1.7,1.8c1.4,1.2,3.1,2,4.9,2.2
			C130.3,47.9,130.9,47.9,131.4,47.9z M130.3,15.7c1.3,0,1.9-0.1,3-0.3c2.1-0.5,4-1.5,5.5-3c0.9-0.9,1.6-2,2-3.3
			c0.2-0.6,0.3-1.3,0.2-1.9c-0.2-0.9-0.6-1.7-1.3-2.4c-0.9-0.8-2-1.3-3.2-1.5c-0.9-0.1-1.8-0.1-2.6,0c-1.8,0.3-3.4,0.9-4.9,1.9
			c-1.4,1-2.5,2.2-3.3,3.8c-0.5,1.1-0.7,2.2-0.5,3.3c0.1,0.9,0.5,1.6,1.2,2.2c0.8,0.6,1.7,1,2.7,1.1
			C129.4,15.7,129.9,15.7,130.3,15.7z"/>
		<path class="st0" d="M109.7,33.9c0-1.3,0.3-2.6,0.8-3.8c0.2-0.6,0.5-1.2,0.7-1.8c0.2-0.6,0.3-1.1,0.2-1.7c0-0.4-0.1-0.9-0.2-1.3
			c-0.3-1.2-0.6-2.3-0.9-3.5c-0.2-0.9-0.4-1.8-0.5-2.8c-0.1-1-0.1-2-0.1-3.1c0-0.8,0.2-1.5,0.4-2.2c0.2-0.8,0.6-1.4,1.1-2.1
			c0.8-1,1.9-1.5,3.2-1.5c0.5,0,1,0.1,1.4,0.2c1.5,0.4,2.9,0.9,4.3,1.7c2.8,1.5,5.2,3.4,7.4,5.7c1.1,1.2,2.1,2.5,2.9,3.9
			c0.3,0.5,0.5,1.1,0.7,1.6c0.4,1.1,0.5,2.3,0.1,3.5c-0.2,0.8-0.6,1.6-1.1,2.4c-0.7,1.1-1.5,2.1-2.4,3.1c-1.6,1.6-3.3,3-5.2,4.1
			c-1.5,0.9-3,1.7-4.6,2.3c-0.9,0.3-1.8,0.6-2.7,0.7c-0.7,0.1-1.4,0.1-2.1-0.1c-0.8-0.2-1.5-0.7-2-1.2c-0.7-0.7-1.2-1.5-1.3-2.5
			c-0.1-0.2-0.1-0.5-0.1-0.8C109.7,34.5,109.7,34.2,109.7,33.9z"/>
		<path class="st0" d="M145.6,39.5c-0.6,0-1.3,0-1.9-0.1c-1.4-0.2-2.7-0.5-3.9-1.1c-1.2-0.6-2.2-1.3-3.1-2.2
			c-0.4-0.4-0.8-0.9-1.1-1.4c-0.5-0.8-0.6-1.7-0.5-2.6c0.2-1.7,1.1-2.9,2.5-3.8c0.7-0.5,1.5-0.7,2.3-0.9c1.1-0.2,2.2-0.3,3.3-0.2
			c1.7,0.2,3.4,0.7,4.9,1.4c1.1,0.5,2.1,1.2,2.9,2.1c0.8,0.8,1.4,1.7,1.7,2.7c0.5,1.4,0.2,2.7-0.7,3.8c-0.6,0.8-1.5,1.3-2.5,1.7
			c-0.8,0.3-1.6,0.5-2.5,0.6C146.6,39.4,146.1,39.5,145.6,39.5z"/>
		<path class="st0" d="M143.2,25.4c-0.9,0-1.7,0-2.5-0.2c-0.9-0.2-1.8-0.5-2.7-1c-0.7-0.4-1.3-0.9-1.8-1.5c-0.3-0.3-0.4-0.7-0.5-1.1
			c-0.1-0.9-0.1-1.8,0.2-2.6c0.2-0.5,0.4-0.9,0.7-1.4c0.8-1.1,1.8-2,3-2.6c1.2-0.7,2.6-1.1,3.9-1.4c1-0.2,2-0.3,3-0.3
			c1.5,0.1,2.9,0.4,4.2,1.1c0.8,0.4,1.4,0.9,2,1.6c0.4,0.5,0.7,1.1,0.8,1.7c0.2,0.9,0,1.8-0.4,2.6c-0.5,1-1.3,1.8-2.2,2.5
			c-1,0.8-2.1,1.3-3.3,1.8c-1.3,0.5-2.7,0.8-4,0.8C143.5,25.4,143.3,25.4,143.2,25.4z"/>
		<path class="st0" d="M131.4,47.9c-0.6,0-1.2,0-1.7-0.1c-1.9-0.3-3.5-1-4.9-2.2c-0.6-0.6-1.2-1.2-1.7-1.8c-0.4-0.5-0.7-1.1-0.9-1.8
			c-0.1-0.5-0.1-1-0.1-1.5c0.1-2.4,2.1-4.5,4.6-4.9c0.9-0.2,1.7-0.1,2.6-0.1c1.4,0.2,2.8,0.6,4.1,1.2c1.5,0.8,2.7,1.8,3.6,3.2
			c0.4,0.6,0.8,1.3,0.9,2c0.3,1.4,0.1,2.8-0.9,3.9c-0.4,0.5-0.9,0.9-1.5,1.2c-0.8,0.4-1.7,0.7-2.6,0.8
			C132.4,47.9,131.9,47.9,131.4,47.9z"/>
		<path class="st0" d="M130.3,15.7c-0.5,0-0.9,0-1.4-0.1c-1-0.1-1.9-0.5-2.7-1.1c-0.7-0.6-1.1-1.3-1.2-2.2c-0.2-1.2,0-2.3,0.5-3.3
			c0.7-1.6,1.9-2.8,3.3-3.8c1.5-1,3.1-1.7,4.9-1.9c0.9-0.1,1.8-0.2,2.6,0c1.2,0.2,2.3,0.6,3.2,1.5c0.7,0.6,1.2,1.4,1.3,2.4
			c0.1,0.7,0,1.3-0.2,1.9c-0.4,1.3-1.1,2.3-2,3.3c-1.5,1.5-3.4,2.5-5.5,3C132.2,15.6,131.6,15.7,130.3,15.7z"/>
	</g>
	<g>
		<path class="st0" d="M216.8,86.6c0,0.3,0,0.6,0,0.9c0,0.3,0,0.5,0.1,0.8c0.4,1.7,1.4,2.9,2.9,3.6c0.3,0.1,0.7,0.2,1,0.3
			c0.5,0.1,1.1,0,1.6-0.1c0.9-0.1,1.8-0.4,2.7-0.7c1.7-0.6,3.2-1.5,4.7-2.4c1.8-1.2,3.5-2.5,5-4c0.9-0.9,1.7-1.9,2.3-3
			c0.5-0.8,0.9-1.7,1.2-2.6c0.3-1.1,0.3-2.2-0.1-3.2c-0.2-0.5-0.4-1-0.6-1.5c-0.7-1.4-1.6-2.7-2.7-3.8c-2.1-2.2-4.4-4.1-7-5.6
			c-1.4-0.8-2.8-1.5-4.4-1.9c-0.6-0.2-1.2-0.3-1.8-0.4c-1.4-0.1-2.6,0.4-3.5,1.5c-0.6,0.7-1,1.5-1.2,2.4c-0.2,0.6-0.3,1.3-0.3,1.9
			c0,1,0,2.1,0.1,3.1c0.1,0.9,0.3,1.8,0.5,2.7c0.3,1.2,0.6,2.3,0.9,3.5c0.1,0.4,0.2,0.9,0.2,1.3c0.1,0.6-0.1,1.1-0.2,1.7
			c-0.2,0.6-0.4,1.2-0.7,1.8C217.1,84,216.8,85.3,216.8,86.6z M252.9,92.2C252.9,92.2,252.9,92.2,252.9,92.2c0.1,0,0.2,0,0.3,0
			c0.9,0,1.7-0.1,2.5-0.3c1.2-0.3,2.2-0.8,3.1-1.6c0.4-0.4,0.7-0.8,0.9-1.3c0.4-0.9,0.5-1.7,0.2-2.7c-0.2-0.5-0.4-1.1-0.7-1.6
			c-0.6-0.9-1.3-1.7-2.2-2.3c-2-1.4-4.2-2.3-6.6-2.6c-1.2-0.1-2.4-0.1-3.6,0.2c-0.9,0.2-1.7,0.5-2.4,1.1c-1.2,0.9-2.1,2.1-2.2,3.6
			c-0.1,0.9,0,1.8,0.5,2.6c0.3,0.6,0.8,1.2,1.3,1.7c0.8,0.7,1.6,1.3,2.5,1.8c1.5,0.8,3.2,1.3,4.9,1.4
			C251.9,92.2,252.4,92.2,252.9,92.2z M250,78.1c1.6,0,3.1-0.3,4.6-0.8c1.3-0.4,2.4-1,3.5-1.8c0.9-0.7,1.7-1.5,2.2-2.6
			c0.4-0.8,0.6-1.7,0.4-2.6c-0.1-0.7-0.4-1.3-0.9-1.8c-0.6-0.7-1.3-1.2-2.1-1.6c-1.5-0.7-3.1-1-4.7-1c-0.9,0-1.8,0.1-2.6,0.3
			c-1.4,0.3-2.7,0.8-3.9,1.5c-1.2,0.7-2.1,1.6-2.9,2.7c-0.2,0.4-0.5,0.7-0.6,1.2c-0.3,0.9-0.3,1.7-0.2,2.6c0.1,0.4,0.2,0.8,0.5,1.1
			c0.6,0.8,1.5,1.4,2.4,1.8C247.1,77.9,248.5,78.2,250,78.1z M238.5,100.7c0.8,0,1.5,0,2.3-0.2c1-0.2,2-0.6,2.8-1.3
			c1-0.8,1.5-1.9,1.5-3.1c0.1-0.9-0.2-1.7-0.5-2.4c-0.8-1.6-2-2.9-3.5-3.8c-1.5-0.9-3.1-1.4-4.8-1.6c-0.8-0.1-1.6-0.1-2.4,0.1
			c-2.4,0.4-4.5,2.5-4.6,4.9c0,0.5,0,1,0.1,1.5c0.2,0.7,0.5,1.3,0.9,1.8c0.8,1,1.7,1.9,2.8,2.6c1.2,0.8,2.5,1.3,4,1.4
			C237.5,100.6,238,100.6,238.5,100.7z M237.4,68.4c1,0,1.9-0.1,2.9-0.3c2.1-0.5,4-1.5,5.6-3.1c0.9-0.9,1.6-2,2-3.3
			c0.2-0.6,0.3-1.3,0.2-1.9c-0.2-0.9-0.5-1.6-1.2-2.2c-1-1-2.2-1.5-3.6-1.7c-0.8-0.1-1.6-0.1-2.5,0.1c-1.9,0.3-3.6,1-5.1,2.1
			c-1.3,1-2.4,2.2-3,3.6c-0.5,1.1-0.7,2.2-0.5,3.3c0.1,0.8,0.5,1.6,1.2,2.1c0.8,0.7,1.8,1.1,2.9,1.1C236.6,68.4,237,68.4,237.4,68.4
			z"/>
		<path class="st0" d="M216.8,86.6c0-1.3,0.3-2.6,0.8-3.8c0.2-0.6,0.5-1.2,0.7-1.8c0.2-0.5,0.3-1.1,0.2-1.7c0-0.4-0.1-0.9-0.2-1.3
			c-0.3-1.2-0.6-2.3-0.9-3.5c-0.2-0.9-0.4-1.8-0.5-2.7c-0.1-1-0.1-2-0.1-3.1c0-0.6,0.1-1.3,0.3-1.9c0.2-0.9,0.6-1.7,1.2-2.4
			c0.9-1.1,2.1-1.6,3.5-1.5c0.6,0,1.2,0.2,1.8,0.4c1.5,0.4,3,1.1,4.4,1.9c2.6,1.5,5,3.4,7,5.6c1.1,1.1,2,2.4,2.7,3.8
			c0.2,0.5,0.4,1,0.6,1.5c0.4,1.1,0.4,2.1,0.1,3.2c-0.2,0.9-0.7,1.8-1.2,2.6c-0.7,1.1-1.5,2.1-2.3,3c-1.5,1.5-3.2,2.9-5,4
			c-1.5,1-3.1,1.8-4.7,2.4c-0.9,0.3-1.8,0.6-2.7,0.7c-0.5,0.1-1.1,0.1-1.6,0.1c-0.3,0-0.7-0.1-1-0.3c-1.6-0.7-2.5-1.9-2.9-3.6
			c-0.1-0.2-0.1-0.5-0.1-0.8C216.8,87.2,216.8,86.9,216.8,86.6z"/>
		<path class="st0" d="M252.9,92.2c-0.5,0-1,0-1.5,0c-1.7-0.1-3.4-0.6-4.9-1.4c-0.9-0.5-1.7-1.1-2.5-1.8c-0.5-0.5-1-1-1.3-1.7
			c-0.4-0.8-0.6-1.7-0.5-2.6c0.2-1.6,1-2.7,2.2-3.6c0.7-0.5,1.6-0.8,2.4-1.1c1.2-0.3,2.4-0.3,3.6-0.2c2.4,0.3,4.7,1.1,6.6,2.6
			c0.9,0.6,1.6,1.4,2.2,2.3c0.3,0.5,0.5,1,0.7,1.6c0.3,0.9,0.2,1.8-0.2,2.7c-0.2,0.5-0.5,0.9-0.9,1.3c-0.9,0.8-1.9,1.3-3.1,1.6
			c-0.8,0.2-1.7,0.3-2.5,0.3C253.1,92.2,253,92.2,252.9,92.2C252.9,92.2,252.9,92.2,252.9,92.2z"/>
		<path class="st0" d="M250,78.1c-1.5,0-2.9-0.2-4.2-0.8c-0.9-0.4-1.8-1-2.4-1.8c-0.3-0.3-0.4-0.7-0.5-1.1c-0.1-0.9-0.1-1.8,0.2-2.6
			c0.1-0.4,0.3-0.8,0.6-1.2c0.8-1.1,1.8-2,2.9-2.7c1.2-0.7,2.5-1.2,3.9-1.5c0.9-0.2,1.7-0.3,2.6-0.3c1.6,0,3.2,0.2,4.7,1
			c0.8,0.4,1.5,0.9,2.1,1.6c0.5,0.5,0.8,1.1,0.9,1.8c0.2,0.9,0,1.8-0.4,2.6c-0.5,1.1-1.3,1.9-2.2,2.6c-1.1,0.8-2.3,1.4-3.5,1.8
			C253.1,77.9,251.6,78.1,250,78.1z"/>
		<path class="st0" d="M238.5,100.7c-0.5,0-1,0-1.6-0.1c-1.4-0.2-2.8-0.6-4-1.4c-1.1-0.7-2-1.6-2.8-2.6c-0.4-0.6-0.7-1.2-0.9-1.8
			c-0.1-0.5-0.1-1-0.1-1.5c0.1-2.4,2.2-4.5,4.6-4.9c0.8-0.1,1.6-0.1,2.4-0.1c1.7,0.1,3.3,0.7,4.8,1.6c1.5,0.9,2.8,2.2,3.5,3.8
			c0.4,0.8,0.6,1.6,0.5,2.4c-0.1,1.2-0.6,2.3-1.5,3.1c-0.8,0.7-1.8,1.1-2.8,1.3C240.1,100.6,239.3,100.7,238.5,100.7z"/>
		<path class="st0" d="M237.4,68.4c-0.4,0-0.8,0-1.2,0c-1.1-0.1-2.1-0.5-2.9-1.1c-0.7-0.5-1-1.3-1.2-2.1c-0.2-1.2,0-2.3,0.5-3.3
			c0.7-1.5,1.7-2.7,3-3.6c1.5-1.1,3.2-1.8,5.1-2.1c0.8-0.1,1.6-0.1,2.5-0.1c1.4,0.1,2.6,0.7,3.6,1.7c0.6,0.6,1,1.4,1.2,2.2
			c0.1,0.7,0,1.3-0.2,1.9c-0.4,1.3-1.1,2.3-2,3.3c-1.6,1.6-3.4,2.6-5.6,3.1C239.4,68.3,238.4,68.4,237.4,68.4z"/>
	</g>
	<g>
		<path class="st0" d="M323.9,33.6c0,0.3,0,0.6,0,0.9c0,0.3,0,0.5,0.1,0.8c0.2,1,0.7,1.8,1.3,2.5c0.6,0.6,1.2,1,2,1.2
			c0.7,0.2,1.4,0.2,2.1,0.1c0.9-0.1,1.8-0.4,2.7-0.7c1.6-0.6,3.2-1.4,4.6-2.3c1.9-1.2,3.7-2.5,5.2-4.1c0.9-0.9,1.8-2,2.4-3.1
			c0.4-0.7,0.8-1.5,1.1-2.4c0.3-1.2,0.3-2.3-0.1-3.5c-0.2-0.5-0.4-1.1-0.7-1.6c-0.7-1.5-1.7-2.8-2.9-3.9c-2.2-2.3-4.7-4.1-7.4-5.7
			c-1.4-0.7-2.8-1.3-4.3-1.7c-0.5-0.1-0.9-0.2-1.4-0.2c-1.3,0-2.4,0.5-3.2,1.5c-0.5,0.6-0.9,1.3-1.1,2.1c-0.2,0.7-0.4,1.5-0.4,2.2
			c0,1,0,2,0.1,3.1c0.1,0.9,0.3,1.8,0.5,2.8c0.3,1.2,0.6,2.3,0.9,3.5c0.1,0.4,0.2,0.9,0.2,1.3c0.1,0.6-0.1,1.2-0.2,1.7
			c-0.2,0.6-0.4,1.2-0.7,1.8C324.2,31,323.9,32.3,323.9,33.6z M359.8,39.2c0.5,0,1,0,1.6-0.1c0.8-0.1,1.7-0.2,2.5-0.6
			c1-0.4,1.8-0.9,2.5-1.7c0.9-1.1,1.2-2.4,0.7-3.8c-0.3-1-0.9-1.9-1.7-2.7c-0.9-0.9-1.9-1.5-2.9-2.1c-1.6-0.8-3.2-1.3-4.9-1.4
			c-1.1-0.1-2.2,0-3.3,0.2c-0.8,0.2-1.6,0.4-2.3,0.9c-1.4,0.9-2.3,2.1-2.5,3.8c-0.1,0.9,0,1.8,0.5,2.6c0.3,0.5,0.7,1,1.1,1.4
			c0.9,0.9,2,1.6,3.1,2.2c1.2,0.6,2.5,1,3.9,1.1C358.5,39.2,359.2,39.2,359.8,39.2z M357.4,25.2c0.1,0,0.3,0,0.5,0
			c1.4-0.1,2.7-0.4,4-0.8c1.2-0.4,2.3-1,3.3-1.8c0.9-0.7,1.7-1.5,2.2-2.5c0.4-0.8,0.6-1.7,0.4-2.6c-0.1-0.6-0.4-1.2-0.8-1.7
			c-0.5-0.7-1.2-1.2-2-1.6c-1.3-0.7-2.7-1-4.2-1.1c-1,0-2,0.1-3,0.3c-1.4,0.3-2.7,0.7-3.9,1.4c-1.2,0.7-2.2,1.5-3,2.6
			c-0.3,0.4-0.6,0.9-0.7,1.4c-0.3,0.9-0.3,1.7-0.2,2.6c0.1,0.4,0.2,0.8,0.5,1.1c0.5,0.6,1.1,1.1,1.8,1.5c0.8,0.5,1.7,0.8,2.7,1
			C355.7,25.1,356.5,25.2,357.4,25.2z M345.6,47.7c0.5,0,1,0,1.4-0.1c0.9-0.1,1.8-0.4,2.6-0.8c0.6-0.3,1.1-0.7,1.5-1.2
			c1-1.2,1.2-2.5,0.9-3.9c-0.2-0.7-0.5-1.4-0.9-2c-0.9-1.4-2.1-2.4-3.6-3.2c-1.3-0.7-2.6-1.1-4.1-1.2c-0.9-0.1-1.7-0.1-2.6,0.1
			c-2.5,0.4-4.5,2.6-4.6,4.9c0,0.5,0,1,0.1,1.5c0.2,0.6,0.5,1.2,0.9,1.8c0.5,0.7,1.1,1.3,1.7,1.8c1.4,1.2,3.1,2,4.9,2.2
			C344.5,47.6,345.1,47.7,345.6,47.7z M344.5,15.4c1.3,0,1.9-0.1,3-0.3c2.1-0.5,4-1.5,5.5-3c0.9-0.9,1.6-2,2-3.3
			c0.2-0.6,0.3-1.3,0.2-1.9c-0.2-0.9-0.6-1.7-1.3-2.4c-0.9-0.8-2-1.3-3.2-1.5c-0.9-0.1-1.8-0.1-2.6,0C346.1,3.3,344.5,4,343,5
			c-1.4,1-2.5,2.2-3.3,3.8c-0.5,1.1-0.7,2.2-0.5,3.3c0.1,0.9,0.5,1.6,1.2,2.2c0.8,0.6,1.7,1,2.7,1.1
			C343.6,15.4,344.1,15.4,344.5,15.4z"/>
		<path class="st0" d="M323.9,33.6c0-1.3,0.3-2.6,0.8-3.8c0.2-0.6,0.5-1.2,0.7-1.8c0.2-0.6,0.3-1.1,0.2-1.7c0-0.4-0.1-0.9-0.2-1.3
			c-0.3-1.2-0.6-2.3-0.9-3.5c-0.2-0.9-0.4-1.8-0.5-2.8c-0.1-1-0.1-2-0.1-3.1c0-0.8,0.2-1.5,0.4-2.2c0.2-0.8,0.6-1.4,1.1-2.1
			c0.8-1,1.9-1.5,3.2-1.5c0.5,0,1,0.1,1.4,0.2c1.5,0.4,2.9,0.9,4.3,1.7c2.8,1.5,5.2,3.4,7.4,5.7c1.1,1.2,2.1,2.5,2.9,3.9
			c0.3,0.5,0.5,1.1,0.7,1.6c0.4,1.1,0.5,2.3,0.1,3.5c-0.2,0.8-0.6,1.6-1.1,2.4c-0.7,1.1-1.5,2.1-2.4,3.1c-1.6,1.6-3.3,3-5.2,4.1
			c-1.5,0.9-3,1.7-4.6,2.3c-0.9,0.3-1.8,0.6-2.7,0.7c-0.7,0.1-1.4,0.1-2.1-0.1c-0.8-0.2-1.5-0.7-2-1.2c-0.7-0.7-1.2-1.5-1.3-2.5
			c-0.1-0.2-0.1-0.5-0.1-0.8C323.9,34.2,323.9,33.9,323.9,33.6z"/>
		<path class="st0" d="M359.8,39.2c-0.6,0-1.3,0-1.9-0.1c-1.4-0.2-2.7-0.5-3.9-1.1c-1.2-0.6-2.2-1.3-3.1-2.2
			c-0.4-0.4-0.8-0.9-1.1-1.4c-0.5-0.8-0.6-1.7-0.5-2.6c0.2-1.7,1.1-2.9,2.5-3.8c0.7-0.5,1.5-0.7,2.3-0.9c1.1-0.2,2.2-0.3,3.3-0.2
			c1.7,0.2,3.4,0.7,4.9,1.4c1.1,0.5,2.1,1.2,2.9,2.1c0.8,0.8,1.4,1.7,1.7,2.7c0.5,1.4,0.2,2.7-0.7,3.8c-0.6,0.8-1.5,1.3-2.5,1.7
			c-0.8,0.3-1.6,0.5-2.5,0.6C360.9,39.2,360.3,39.2,359.8,39.2z"/>
		<path class="st0" d="M357.4,25.2c-0.9,0-1.7,0-2.5-0.2c-0.9-0.2-1.8-0.5-2.7-1c-0.7-0.4-1.3-0.9-1.8-1.5c-0.3-0.3-0.4-0.7-0.5-1.1
			c-0.1-0.9-0.1-1.8,0.2-2.6c0.2-0.5,0.4-0.9,0.7-1.4c0.8-1.1,1.8-2,3-2.6c1.2-0.7,2.6-1.1,3.9-1.4c1-0.2,2-0.3,3-0.3
			c1.5,0.1,2.9,0.4,4.2,1.1c0.8,0.4,1.4,0.9,2,1.6c0.4,0.5,0.7,1.1,0.8,1.7c0.2,0.9,0,1.8-0.4,2.6c-0.5,1-1.3,1.8-2.2,2.5
			c-1,0.8-2.1,1.3-3.3,1.8c-1.3,0.5-2.7,0.8-4,0.8C357.7,25.1,357.5,25.2,357.4,25.2z"/>
		<path class="st0" d="M345.6,47.7c-0.6,0-1.2,0-1.7-0.1c-1.9-0.3-3.5-1-4.9-2.2c-0.6-0.6-1.2-1.2-1.7-1.8c-0.4-0.5-0.7-1.1-0.9-1.8
			c-0.1-0.5-0.1-1-0.1-1.5c0.1-2.4,2.1-4.5,4.6-4.9c0.9-0.2,1.7-0.1,2.6-0.1c1.4,0.2,2.8,0.6,4.1,1.2c1.5,0.8,2.7,1.8,3.6,3.2
			c0.4,0.6,0.8,1.3,0.9,2c0.3,1.4,0.1,2.8-0.9,3.9c-0.4,0.5-0.9,0.9-1.5,1.2c-0.8,0.4-1.7,0.7-2.6,0.8
			C346.6,47.6,346.1,47.7,345.6,47.7z"/>
		<path class="st0" d="M344.5,15.4c-0.5,0-0.9,0-1.4-0.1c-1-0.1-1.9-0.5-2.7-1.1c-0.7-0.6-1.1-1.3-1.2-2.2c-0.2-1.2,0-2.3,0.5-3.3
			c0.7-1.6,1.9-2.8,3.3-3.8c1.5-1,3.1-1.7,4.9-1.9c0.9-0.1,1.8-0.2,2.6,0c1.2,0.2,2.3,0.6,3.2,1.5c0.7,0.6,1.2,1.4,1.3,2.4
			c0.1,0.7,0,1.3-0.2,1.9c-0.4,1.3-1.1,2.3-2,3.3c-1.5,1.5-3.4,2.5-5.5,3C346.4,15.4,345.8,15.4,344.5,15.4z"/>
	</g>
	<g>
		<path class="st0" d="M431,86.6c0,0.3,0,0.6,0,0.9c0,0.3,0,0.5,0.1,0.8c0.4,1.7,1.4,2.9,2.9,3.6c0.3,0.1,0.7,0.2,1,0.3
			c0.5,0.1,1.1,0,1.6-0.1c0.9-0.1,1.8-0.4,2.7-0.7c1.7-0.6,3.2-1.5,4.7-2.4c1.8-1.2,3.5-2.5,5-4c0.9-0.9,1.7-1.9,2.3-3
			c0.5-0.8,0.9-1.7,1.2-2.6c0.3-1.1,0.3-2.2-0.1-3.2c-0.2-0.5-0.4-1-0.6-1.5c-0.7-1.4-1.6-2.7-2.7-3.8c-2.1-2.2-4.4-4.1-7-5.6
			c-1.4-0.8-2.8-1.5-4.4-1.9c-0.6-0.2-1.2-0.3-1.8-0.4c-1.4-0.1-2.6,0.4-3.5,1.5c-0.6,0.7-1,1.5-1.2,2.4c-0.2,0.6-0.3,1.3-0.3,1.9
			c0,1,0,2.1,0.1,3.1c0.1,0.9,0.3,1.8,0.5,2.7c0.3,1.2,0.6,2.3,0.9,3.5c0.1,0.4,0.2,0.9,0.2,1.3c0.1,0.6-0.1,1.1-0.2,1.7
			c-0.2,0.6-0.4,1.2-0.7,1.8C431.3,84,431,85.3,431,86.6z M467.1,92.2C467.1,92.2,467.1,92.2,467.1,92.2c0.1,0,0.2,0,0.3,0
			c0.9,0,1.7-0.1,2.5-0.3c1.2-0.3,2.2-0.8,3.1-1.6c0.4-0.4,0.7-0.8,0.9-1.3c0.4-0.9,0.5-1.7,0.2-2.7c-0.2-0.5-0.4-1.1-0.7-1.6
			c-0.6-0.9-1.3-1.7-2.2-2.3c-2-1.4-4.2-2.3-6.6-2.6c-1.2-0.1-2.4-0.1-3.6,0.2c-0.9,0.2-1.7,0.5-2.4,1.1c-1.2,0.9-2.1,2.1-2.2,3.6
			c-0.1,0.9,0,1.8,0.5,2.6c0.3,0.6,0.8,1.2,1.3,1.7c0.8,0.7,1.6,1.3,2.5,1.8c1.5,0.8,3.2,1.3,4.9,1.4
			C466.1,92.2,466.6,92.2,467.1,92.2z M464.2,78.1c1.6,0,3.1-0.3,4.6-0.8c1.3-0.4,2.4-1,3.5-1.8c0.9-0.7,1.7-1.5,2.2-2.6
			c0.4-0.8,0.6-1.7,0.4-2.6c-0.1-0.7-0.4-1.3-0.9-1.8c-0.6-0.7-1.3-1.2-2.1-1.6c-1.5-0.7-3.1-1-4.7-1c-0.9,0-1.8,0.1-2.6,0.3
			c-1.4,0.3-2.7,0.8-3.9,1.5c-1.2,0.7-2.1,1.6-2.9,2.7c-0.2,0.4-0.5,0.7-0.6,1.2c-0.3,0.9-0.3,1.7-0.2,2.6c0.1,0.4,0.2,0.8,0.5,1.1
			c0.6,0.8,1.5,1.4,2.4,1.8C461.3,77.9,462.7,78.2,464.2,78.1z M452.7,100.7c0.8,0,1.5,0,2.3-0.2c1-0.2,2-0.6,2.8-1.3
			c1-0.8,1.5-1.9,1.5-3.1c0.1-0.9-0.2-1.7-0.5-2.4c-0.8-1.6-2-2.9-3.5-3.8c-1.5-0.9-3.1-1.4-4.8-1.6c-0.8-0.1-1.6-0.1-2.4,0.1
			c-2.4,0.4-4.5,2.5-4.6,4.9c0,0.5,0,1,0.1,1.5c0.2,0.7,0.5,1.3,0.9,1.8c0.8,1,1.7,1.9,2.8,2.6c1.2,0.8,2.5,1.3,4,1.4
			C451.7,100.6,452.2,100.6,452.7,100.7z M451.6,68.4c1,0,1.9-0.1,2.9-0.3c2.1-0.5,4-1.5,5.6-3.1c0.9-0.9,1.6-2,2-3.3
			c0.2-0.6,0.3-1.3,0.2-1.9c-0.2-0.9-0.5-1.6-1.2-2.2c-1-1-2.2-1.5-3.6-1.7c-0.8-0.1-1.6-0.1-2.5,0.1c-1.9,0.3-3.6,1-5.1,2.1
			c-1.3,1-2.4,2.2-3,3.6c-0.5,1.1-0.7,2.2-0.5,3.3c0.1,0.8,0.5,1.6,1.2,2.1c0.8,0.7,1.8,1.1,2.9,1.1
			C450.8,68.4,451.2,68.4,451.6,68.4z"/>
		<path class="st0" d="M431,86.6c0-1.3,0.3-2.6,0.8-3.8c0.2-0.6,0.5-1.2,0.7-1.8c0.2-0.5,0.3-1.1,0.2-1.7c0-0.4-0.1-0.9-0.2-1.3
			c-0.3-1.2-0.6-2.3-0.9-3.5c-0.2-0.9-0.4-1.8-0.5-2.7c-0.1-1-0.1-2-0.1-3.1c0-0.6,0.1-1.3,0.3-1.9c0.2-0.9,0.6-1.7,1.2-2.4
			c0.9-1.1,2.1-1.6,3.5-1.5c0.6,0,1.2,0.2,1.8,0.4c1.5,0.4,3,1.1,4.4,1.9c2.6,1.5,5,3.4,7,5.6c1.1,1.1,2,2.4,2.7,3.8
			c0.2,0.5,0.4,1,0.6,1.5c0.4,1.1,0.4,2.1,0.1,3.2c-0.2,0.9-0.7,1.8-1.2,2.6c-0.7,1.1-1.5,2.1-2.3,3c-1.5,1.5-3.2,2.9-5,4
			c-1.5,1-3.1,1.8-4.7,2.4c-0.9,0.3-1.8,0.6-2.7,0.7c-0.5,0.1-1.1,0.1-1.6,0.1c-0.3,0-0.7-0.1-1-0.3c-1.6-0.7-2.5-1.9-2.9-3.6
			c-0.1-0.2-0.1-0.5-0.1-0.8C431,87.2,431,86.9,431,86.6z"/>
		<path class="st0" d="M467.1,92.2c-0.5,0-1,0-1.5,0c-1.7-0.1-3.4-0.6-4.9-1.4c-0.9-0.5-1.7-1.1-2.5-1.8c-0.5-0.5-1-1-1.3-1.7
			c-0.4-0.8-0.6-1.7-0.5-2.6c0.2-1.6,1-2.7,2.2-3.6c0.7-0.5,1.6-0.8,2.4-1.1c1.2-0.3,2.4-0.3,3.6-0.2c2.4,0.3,4.7,1.1,6.6,2.6
			c0.9,0.6,1.6,1.4,2.2,2.3c0.3,0.5,0.5,1,0.7,1.6c0.3,0.9,0.2,1.8-0.2,2.7c-0.2,0.5-0.5,0.9-0.9,1.3c-0.9,0.8-1.9,1.3-3.1,1.6
			c-0.8,0.2-1.7,0.3-2.5,0.3C467.3,92.2,467.2,92.2,467.1,92.2C467.1,92.2,467.1,92.2,467.1,92.2z"/>
		<path class="st0" d="M464.2,78.1c-1.5,0-2.9-0.2-4.2-0.8c-0.9-0.4-1.8-1-2.4-1.8c-0.3-0.3-0.4-0.7-0.5-1.1
			c-0.1-0.9-0.1-1.8,0.2-2.6c0.1-0.4,0.3-0.8,0.6-1.2c0.8-1.1,1.8-2,2.9-2.7c1.2-0.7,2.5-1.2,3.9-1.5c0.9-0.2,1.7-0.3,2.6-0.3
			c1.6,0,3.2,0.2,4.7,1c0.8,0.4,1.5,0.9,2.1,1.6c0.5,0.5,0.8,1.1,0.9,1.8c0.2,0.9,0,1.8-0.4,2.6c-0.5,1.1-1.3,1.9-2.2,2.6
			c-1.1,0.8-2.3,1.4-3.5,1.8C467.3,77.9,465.8,78.1,464.2,78.1z"/>
		<path class="st0" d="M452.7,100.7c-0.5,0-1,0-1.6-0.1c-1.4-0.2-2.8-0.6-4-1.4c-1.1-0.7-2-1.6-2.8-2.6c-0.4-0.6-0.7-1.2-0.9-1.8
			c-0.1-0.5-0.1-1-0.1-1.5c0.1-2.4,2.2-4.5,4.6-4.9c0.8-0.1,1.6-0.1,2.4-0.1c1.7,0.1,3.3,0.7,4.8,1.6c1.5,0.9,2.8,2.2,3.5,3.8
			c0.4,0.8,0.6,1.6,0.5,2.4c-0.1,1.2-0.6,2.3-1.5,3.1c-0.8,0.7-1.8,1.1-2.8,1.3C454.3,100.6,453.5,100.7,452.7,100.7z"/>
		<path class="st0" d="M451.6,68.4c-0.4,0-0.8,0-1.2,0c-1.1-0.1-2.1-0.5-2.9-1.1c-0.7-0.5-1-1.3-1.2-2.1c-0.2-1.2,0-2.3,0.5-3.3
			c0.7-1.5,1.7-2.7,3-3.6c1.5-1.1,3.2-1.8,5.1-2.1c0.8-0.1,1.6-0.1,2.5-0.1c1.4,0.1,2.6,0.7,3.6,1.7c0.6,0.6,1,1.4,1.2,2.2
			c0.1,0.7,0,1.3-0.2,1.9c-0.4,1.3-1.1,2.3-2,3.3c-1.6,1.6-3.4,2.6-5.6,3.1C453.6,68.3,452.6,68.4,451.6,68.4z"/>
	</g>
	<g>
		<path class="st0" d="M538.1,33.6c0,0.3,0,0.6,0,0.9c0,0.3,0,0.5,0.1,0.8c0.2,1,0.7,1.8,1.3,2.5c0.6,0.6,1.2,1,2,1.2
			c0.7,0.2,1.4,0.2,2.1,0.1c0.9-0.1,1.8-0.4,2.7-0.7c1.6-0.6,3.2-1.4,4.6-2.3c1.9-1.2,3.7-2.5,5.2-4.1c0.9-0.9,1.8-2,2.4-3.1
			c0.4-0.7,0.8-1.5,1.1-2.4c0.3-1.2,0.3-2.3-0.1-3.5c-0.2-0.5-0.4-1.1-0.7-1.6c-0.7-1.5-1.7-2.8-2.9-3.9c-2.2-2.3-4.7-4.1-7.4-5.7
			c-1.4-0.7-2.8-1.3-4.3-1.7c-0.5-0.1-0.9-0.2-1.4-0.2c-1.3,0-2.4,0.5-3.2,1.5c-0.5,0.6-0.9,1.3-1.1,2.1c-0.2,0.7-0.4,1.5-0.4,2.2
			c0,1,0,2,0.1,3.1c0.1,0.9,0.3,1.8,0.5,2.8c0.3,1.2,0.6,2.3,0.9,3.5c0.1,0.4,0.2,0.9,0.2,1.3c0.1,0.6-0.1,1.2-0.2,1.7
			c-0.2,0.6-0.4,1.2-0.7,1.8C538.4,31,538.1,32.3,538.1,33.6z M574,39.2c0.5,0,1,0,1.6-0.1c0.8-0.1,1.7-0.2,2.5-0.6
			c1-0.4,1.8-0.9,2.5-1.7c0.9-1.1,1.2-2.4,0.7-3.8c-0.3-1-0.9-1.9-1.7-2.7c-0.9-0.9-1.9-1.5-2.9-2.1c-1.6-0.8-3.2-1.3-4.9-1.4
			c-1.1-0.1-2.2,0-3.3,0.2c-0.8,0.2-1.6,0.4-2.3,0.9c-1.4,0.9-2.3,2.1-2.5,3.8c-0.1,0.9,0,1.8,0.5,2.6c0.3,0.5,0.7,1,1.1,1.4
			c0.9,0.9,2,1.6,3.1,2.2c1.2,0.6,2.5,1,3.9,1.1C572.8,39.2,573.4,39.2,574,39.2z M571.6,25.2c0.1,0,0.3,0,0.5,0
			c1.4-0.1,2.7-0.4,4-0.8c1.2-0.4,2.3-1,3.3-1.8c0.9-0.7,1.7-1.5,2.2-2.5c0.4-0.8,0.6-1.7,0.4-2.6c-0.1-0.6-0.4-1.2-0.8-1.7
			c-0.5-0.7-1.2-1.2-2-1.6c-1.3-0.7-2.7-1-4.2-1.1c-1,0-2,0.1-3,0.3c-1.4,0.3-2.7,0.7-3.9,1.4c-1.2,0.7-2.2,1.5-3,2.6
			c-0.3,0.4-0.6,0.9-0.7,1.4c-0.3,0.9-0.3,1.7-0.2,2.6c0.1,0.4,0.2,0.8,0.5,1.1c0.5,0.6,1.1,1.1,1.8,1.5c0.8,0.5,1.7,0.8,2.7,1
			C569.9,25.1,570.7,25.2,571.6,25.2z M559.8,47.7c0.5,0,1,0,1.4-0.1c0.9-0.1,1.8-0.4,2.6-0.8c0.6-0.3,1.1-0.7,1.5-1.2
			c1-1.2,1.2-2.5,0.9-3.9c-0.2-0.7-0.5-1.4-0.9-2c-0.9-1.4-2.1-2.4-3.6-3.2c-1.3-0.7-2.6-1.1-4.1-1.2c-0.9-0.1-1.7-0.1-2.6,0.1
			c-2.5,0.4-4.5,2.6-4.6,4.9c0,0.5,0,1,0.1,1.5c0.2,0.6,0.5,1.2,0.9,1.8c0.5,0.7,1.1,1.3,1.7,1.8c1.4,1.2,3.1,2,4.9,2.2
			C558.7,47.6,559.3,47.7,559.8,47.7z M558.7,15.4c1.3,0,1.9-0.1,3-0.3c2.1-0.5,4-1.5,5.5-3c0.9-0.9,1.6-2,2-3.3
			c0.2-0.6,0.3-1.3,0.2-1.9c-0.2-0.9-0.6-1.7-1.3-2.4c-0.9-0.8-2-1.3-3.2-1.5c-0.9-0.1-1.8-0.1-2.6,0c-1.8,0.3-3.4,0.9-4.9,1.9
			c-1.4,1-2.5,2.2-3.3,3.8c-0.5,1.1-0.7,2.2-0.5,3.3c0.1,0.9,0.5,1.6,1.2,2.2c0.8,0.6,1.7,1,2.7,1.1
			C557.8,15.4,558.3,15.4,558.7,15.4z"/>
		<path class="st0" d="M538.1,33.6c0-1.3,0.3-2.6,0.8-3.8c0.2-0.6,0.5-1.2,0.7-1.8c0.2-0.6,0.3-1.1,0.2-1.7c0-0.4-0.1-0.9-0.2-1.3
			c-0.3-1.2-0.6-2.3-0.9-3.5c-0.2-0.9-0.4-1.8-0.5-2.8c-0.1-1-0.1-2-0.1-3.1c0-0.8,0.2-1.5,0.4-2.2c0.2-0.8,0.6-1.4,1.1-2.1
			c0.8-1,1.9-1.5,3.2-1.5c0.5,0,1,0.1,1.4,0.2c1.5,0.4,2.9,0.9,4.3,1.7c2.8,1.5,5.2,3.4,7.4,5.7c1.1,1.2,2.1,2.5,2.9,3.9
			c0.3,0.5,0.5,1.1,0.7,1.6c0.4,1.1,0.5,2.3,0.1,3.5c-0.2,0.8-0.6,1.6-1.1,2.4c-0.7,1.1-1.5,2.1-2.4,3.1c-1.6,1.6-3.3,3-5.2,4.1
			c-1.5,0.9-3,1.7-4.6,2.3c-0.9,0.3-1.8,0.6-2.7,0.7c-0.7,0.1-1.4,0.1-2.1-0.1c-0.8-0.2-1.5-0.7-2-1.2c-0.7-0.7-1.2-1.5-1.3-2.5
			c-0.1-0.2-0.1-0.5-0.1-0.8C538.1,34.2,538.1,33.9,538.1,33.6z"/>
		<path class="st0" d="M574,39.2c-0.6,0-1.3,0-1.9-0.1c-1.4-0.2-2.7-0.5-3.9-1.1c-1.2-0.6-2.2-1.3-3.1-2.2c-0.4-0.4-0.8-0.9-1.1-1.4
			c-0.5-0.8-0.6-1.7-0.5-2.6c0.2-1.7,1.1-2.9,2.5-3.8c0.7-0.5,1.5-0.7,2.3-0.9c1.1-0.2,2.2-0.3,3.3-0.2c1.7,0.2,3.4,0.7,4.9,1.4
			c1.1,0.5,2.1,1.2,2.9,2.1c0.8,0.8,1.4,1.7,1.7,2.7c0.5,1.4,0.2,2.7-0.7,3.8c-0.6,0.8-1.5,1.3-2.5,1.7c-0.8,0.3-1.6,0.5-2.5,0.6
			C575.1,39.2,574.5,39.2,574,39.2z"/>
		<path class="st0" d="M571.6,25.2c-0.9,0-1.7,0-2.5-0.2c-0.9-0.2-1.8-0.5-2.7-1c-0.7-0.4-1.3-0.9-1.8-1.5c-0.3-0.3-0.4-0.7-0.5-1.1
			c-0.1-0.9-0.1-1.8,0.2-2.6c0.2-0.5,0.4-0.9,0.7-1.4c0.8-1.1,1.8-2,3-2.6c1.2-0.7,2.6-1.1,3.9-1.4c1-0.2,2-0.3,3-0.3
			c1.5,0.1,2.9,0.4,4.2,1.1c0.8,0.4,1.4,0.9,2,1.6c0.4,0.5,0.7,1.1,0.8,1.7c0.2,0.9,0,1.8-0.4,2.6c-0.5,1-1.3,1.8-2.2,2.5
			c-1,0.8-2.1,1.3-3.3,1.8c-1.3,0.5-2.7,0.8-4,0.8C571.9,25.1,571.7,25.2,571.6,25.2z"/>
		<path class="st0" d="M559.8,47.7c-0.6,0-1.2,0-1.7-0.1c-1.9-0.3-3.5-1-4.9-2.2c-0.6-0.6-1.2-1.2-1.7-1.8c-0.4-0.5-0.7-1.1-0.9-1.8
			c-0.1-0.5-0.1-1-0.1-1.5c0.1-2.4,2.1-4.5,4.6-4.9c0.9-0.2,1.7-0.1,2.6-0.1c1.4,0.2,2.8,0.6,4.1,1.2c1.5,0.8,2.7,1.8,3.6,3.2
			c0.4,0.6,0.8,1.3,0.9,2c0.3,1.4,0.1,2.8-0.9,3.9c-0.4,0.5-0.9,0.9-1.5,1.2c-0.8,0.4-1.7,0.7-2.6,0.8
			C560.8,47.6,560.3,47.7,559.8,47.7z"/>
		<path class="st0" d="M558.7,15.4c-0.5,0-0.9,0-1.4-0.1c-1-0.1-1.9-0.5-2.7-1.1c-0.7-0.6-1.1-1.3-1.2-2.2c-0.2-1.2,0-2.3,0.5-3.3
			c0.7-1.6,1.9-2.8,3.3-3.8c1.5-1,3.1-1.7,4.9-1.9c0.9-0.1,1.8-0.2,2.6,0c1.2,0.2,2.3,0.6,3.2,1.5c0.7,0.6,1.2,1.4,1.3,2.4
			c0.1,0.7,0,1.3-0.2,1.9c-0.4,1.3-1.1,2.3-2,3.3c-1.5,1.5-3.4,2.5-5.5,3C560.7,15.4,560,15.4,558.7,15.4z"/>
	</g>
	<g>
		<path class="st0" d="M645.2,86.6c0,0.3,0,0.6,0,0.9c0,0.3,0,0.5,0.1,0.8c0.4,1.7,1.4,2.9,2.9,3.6c0.3,0.1,0.7,0.2,1,0.3
			c0.5,0.1,1.1,0,1.6-0.1c0.9-0.1,1.8-0.4,2.7-0.7c1.7-0.6,3.2-1.5,4.7-2.4c1.8-1.2,3.5-2.5,5-4c0.9-0.9,1.7-1.9,2.3-3
			c0.5-0.8,0.9-1.7,1.2-2.6c0.3-1.1,0.3-2.2-0.1-3.2c-0.2-0.5-0.4-1-0.6-1.5c-0.7-1.4-1.6-2.7-2.7-3.8c-2.1-2.2-4.4-4.1-7-5.6
			c-1.4-0.8-2.8-1.5-4.4-1.9c-0.6-0.2-1.2-0.3-1.8-0.4c-1.4-0.1-2.6,0.4-3.5,1.5c-0.6,0.7-1,1.5-1.2,2.4c-0.2,0.6-0.3,1.3-0.3,1.9
			c0,1,0,2.1,0.1,3.1c0.1,0.9,0.3,1.8,0.5,2.7c0.3,1.2,0.6,2.3,0.9,3.5c0.1,0.4,0.2,0.9,0.2,1.3c0.1,0.6-0.1,1.1-0.2,1.7
			c-0.2,0.6-0.4,1.2-0.7,1.8C645.5,84,645.2,85.3,645.2,86.6z M681.3,92.2C681.3,92.2,681.3,92.2,681.3,92.2c0.1,0,0.2,0,0.3,0
			c0.9,0,1.7-0.1,2.5-0.3c1.2-0.3,2.2-0.8,3.1-1.6c0.4-0.4,0.7-0.8,0.9-1.3c0.4-0.9,0.5-1.7,0.2-2.7c-0.2-0.5-0.4-1.1-0.7-1.6
			c-0.6-0.9-1.3-1.7-2.2-2.3c-2-1.4-4.2-2.3-6.6-2.6c-1.2-0.1-2.4-0.1-3.6,0.2c-0.9,0.2-1.7,0.5-2.4,1.1c-1.2,0.9-2.1,2.1-2.2,3.6
			c-0.1,0.9,0,1.8,0.5,2.6c0.3,0.6,0.8,1.2,1.3,1.7c0.8,0.7,1.6,1.3,2.5,1.8c1.5,0.8,3.2,1.3,4.9,1.4
			C680.3,92.2,680.8,92.2,681.3,92.2z M678.4,78.1c1.6,0,3.1-0.3,4.6-0.8c1.3-0.4,2.4-1,3.5-1.8c0.9-0.7,1.7-1.5,2.2-2.6
			c0.4-0.8,0.6-1.7,0.4-2.6c-0.1-0.7-0.4-1.3-0.9-1.8c-0.6-0.7-1.3-1.2-2.1-1.6c-1.5-0.7-3.1-1-4.7-1c-0.9,0-1.8,0.1-2.6,0.3
			c-1.4,0.3-2.7,0.8-3.9,1.5c-1.2,0.7-2.1,1.6-2.9,2.7c-0.2,0.4-0.5,0.7-0.6,1.2c-0.3,0.9-0.3,1.7-0.2,2.6c0.1,0.4,0.2,0.8,0.5,1.1
			c0.6,0.8,1.5,1.4,2.4,1.8C675.5,77.9,676.9,78.2,678.4,78.1z M666.9,100.7c0.8,0,1.5,0,2.3-0.2c1-0.2,2-0.6,2.8-1.3
			c1-0.8,1.5-1.9,1.5-3.1c0.1-0.9-0.2-1.7-0.5-2.4c-0.8-1.6-2-2.9-3.5-3.8c-1.5-0.9-3.1-1.4-4.8-1.6c-0.8-0.1-1.6-0.1-2.4,0.1
			c-2.4,0.4-4.5,2.5-4.6,4.9c0,0.5,0,1,0.1,1.5c0.2,0.7,0.5,1.3,0.9,1.8c0.8,1,1.7,1.9,2.8,2.6c1.2,0.8,2.5,1.3,4,1.4
			C665.9,100.6,666.4,100.6,666.9,100.7z M665.9,68.4c1,0,1.9-0.1,2.9-0.3c2.1-0.5,4-1.5,5.6-3.1c0.9-0.9,1.6-2,2-3.3
			c0.2-0.6,0.3-1.3,0.2-1.9c-0.2-0.9-0.5-1.6-1.2-2.2c-1-1-2.2-1.5-3.6-1.7c-0.8-0.1-1.6-0.1-2.5,0.1c-1.9,0.3-3.6,1-5.1,2.1
			c-1.3,1-2.4,2.2-3,3.6c-0.5,1.1-0.7,2.2-0.5,3.3c0.1,0.8,0.5,1.6,1.2,2.1c0.8,0.7,1.8,1.1,2.9,1.1
			C665.1,68.4,665.5,68.4,665.9,68.4z"/>
		<path class="st0" d="M645.2,86.6c0-1.3,0.3-2.6,0.8-3.8c0.2-0.6,0.5-1.2,0.7-1.8c0.2-0.5,0.3-1.1,0.2-1.7c0-0.4-0.1-0.9-0.2-1.3
			c-0.3-1.2-0.6-2.3-0.9-3.5c-0.2-0.9-0.4-1.8-0.5-2.7c-0.1-1-0.1-2-0.1-3.1c0-0.6,0.1-1.3,0.3-1.9c0.2-0.9,0.6-1.7,1.2-2.4
			c0.9-1.1,2.1-1.6,3.5-1.5c0.6,0,1.2,0.2,1.8,0.4c1.5,0.4,3,1.1,4.4,1.9c2.6,1.5,5,3.4,7,5.6c1.1,1.1,2,2.4,2.7,3.8
			c0.2,0.5,0.4,1,0.6,1.5c0.4,1.1,0.4,2.1,0.1,3.2c-0.2,0.9-0.7,1.8-1.2,2.6c-0.7,1.1-1.5,2.1-2.3,3c-1.5,1.5-3.2,2.9-5,4
			c-1.5,1-3.1,1.8-4.7,2.4c-0.9,0.3-1.8,0.6-2.7,0.7c-0.5,0.1-1.1,0.1-1.6,0.1c-0.3,0-0.7-0.1-1-0.3c-1.6-0.7-2.5-1.9-2.9-3.6
			c-0.1-0.2-0.1-0.5-0.1-0.8C645.2,87.2,645.2,86.9,645.2,86.6z"/>
		<path class="st0" d="M681.3,92.2c-0.5,0-1,0-1.5,0c-1.7-0.1-3.4-0.6-4.9-1.4c-0.9-0.5-1.7-1.1-2.5-1.8c-0.5-0.5-1-1-1.3-1.7
			c-0.4-0.8-0.6-1.7-0.5-2.6c0.2-1.6,1-2.7,2.2-3.6c0.7-0.5,1.6-0.8,2.4-1.1c1.2-0.3,2.4-0.3,3.6-0.2c2.4,0.3,4.7,1.1,6.6,2.6
			c0.9,0.6,1.6,1.4,2.2,2.3c0.3,0.5,0.5,1,0.7,1.6c0.3,0.9,0.2,1.8-0.2,2.7c-0.2,0.5-0.5,0.9-0.9,1.3c-0.9,0.8-1.9,1.3-3.1,1.6
			c-0.8,0.2-1.7,0.3-2.5,0.3C681.5,92.2,681.4,92.2,681.3,92.2C681.3,92.2,681.3,92.2,681.3,92.2z"/>
		<path class="st0" d="M678.4,78.1c-1.5,0-2.9-0.2-4.2-0.8c-0.9-0.4-1.8-1-2.4-1.8c-0.3-0.3-0.4-0.7-0.5-1.1
			c-0.1-0.9-0.1-1.8,0.2-2.6c0.1-0.4,0.3-0.8,0.6-1.2c0.8-1.1,1.8-2,2.9-2.7c1.2-0.7,2.5-1.2,3.9-1.5c0.9-0.2,1.7-0.3,2.6-0.3
			c1.6,0,3.2,0.2,4.7,1c0.8,0.4,1.5,0.9,2.1,1.6c0.5,0.5,0.8,1.1,0.9,1.8c0.2,0.9,0,1.8-0.4,2.6c-0.5,1.1-1.3,1.9-2.2,2.6
			c-1.1,0.8-2.3,1.4-3.5,1.8C681.5,77.9,680,78.1,678.4,78.1z"/>
		<path class="st0" d="M666.9,100.7c-0.5,0-1,0-1.6-0.1c-1.4-0.2-2.8-0.6-4-1.4c-1.1-0.7-2-1.6-2.8-2.6c-0.4-0.6-0.7-1.2-0.9-1.8
			c-0.1-0.5-0.1-1-0.1-1.5c0.1-2.4,2.2-4.5,4.6-4.9c0.8-0.1,1.6-0.1,2.4-0.1c1.7,0.1,3.3,0.7,4.8,1.6c1.5,0.9,2.8,2.2,3.5,3.8
			c0.4,0.8,0.6,1.6,0.5,2.4c-0.1,1.2-0.6,2.3-1.5,3.1c-0.8,0.7-1.8,1.1-2.8,1.3C668.5,100.6,667.7,100.7,666.9,100.7z"/>
		<path class="st0" d="M665.9,68.4c-0.4,0-0.8,0-1.2,0c-1.1-0.1-2.1-0.5-2.9-1.1c-0.7-0.5-1-1.3-1.2-2.1c-0.2-1.2,0-2.3,0.5-3.3
			c0.7-1.5,1.7-2.7,3-3.6c1.5-1.1,3.2-1.8,5.1-2.1c0.8-0.1,1.6-0.1,2.5-0.1c1.4,0.1,2.6,0.7,3.6,1.7c0.6,0.6,1,1.4,1.2,2.2
			c0.1,0.7,0,1.3-0.2,1.9c-0.4,1.3-1.1,2.3-2,3.3c-1.6,1.6-3.4,2.6-5.6,3.1C667.8,68.3,666.8,68.4,665.9,68.4z"/>
	</g>
	<g>
		<path class="st0" d="M752.3,33.6c0,0.3,0,0.6,0,0.9c0,0.3,0,0.5,0.1,0.8c0.2,1,0.7,1.8,1.3,2.5c0.6,0.6,1.2,1,2,1.2
			c0.7,0.2,1.4,0.2,2.1,0.1c0.9-0.1,1.8-0.4,2.7-0.7c1.6-0.6,3.2-1.4,4.6-2.3c1.9-1.2,3.7-2.5,5.2-4.1c0.9-0.9,1.8-2,2.4-3.1
			c0.4-0.7,0.8-1.5,1.1-2.4c0.3-1.2,0.3-2.3-0.1-3.5c-0.2-0.5-0.4-1.1-0.7-1.6c-0.7-1.5-1.7-2.8-2.9-3.9c-2.2-2.3-4.7-4.1-7.4-5.7
			c-1.4-0.7-2.8-1.3-4.3-1.7c-0.5-0.1-0.9-0.2-1.4-0.2c-1.3,0-2.4,0.5-3.2,1.5c-0.5,0.6-0.9,1.3-1.1,2.1c-0.2,0.7-0.4,1.5-0.4,2.2
			c0,1,0,2,0.1,3.1c0.1,0.9,0.3,1.8,0.5,2.8c0.3,1.2,0.6,2.3,0.9,3.5c0.1,0.4,0.2,0.9,0.2,1.3c0.1,0.6-0.1,1.2-0.2,1.7
			c-0.2,0.6-0.4,1.2-0.7,1.8C752.6,31,752.3,32.3,752.3,33.6z M788.2,39.2c0.5,0,1,0,1.6-0.1c0.8-0.1,1.7-0.2,2.5-0.6
			c1-0.4,1.8-0.9,2.5-1.7c0.9-1.1,1.2-2.4,0.7-3.8c-0.3-1-0.9-1.9-1.7-2.7c-0.9-0.9-1.9-1.5-2.9-2.1c-1.6-0.8-3.2-1.3-4.9-1.4
			c-1.1-0.1-2.2,0-3.3,0.2c-0.8,0.2-1.6,0.4-2.3,0.9c-1.4,0.9-2.3,2.1-2.5,3.8c-0.1,0.9,0,1.8,0.5,2.6c0.3,0.5,0.7,1,1.1,1.4
			c0.9,0.9,2,1.6,3.1,2.2c1.2,0.6,2.5,1,3.9,1.1C787,39.2,787.6,39.2,788.2,39.2z M785.8,25.2c0.1,0,0.3,0,0.5,0
			c1.4-0.1,2.7-0.4,4-0.8c1.2-0.4,2.3-1,3.3-1.8c0.9-0.7,1.7-1.5,2.2-2.5c0.4-0.8,0.6-1.7,0.4-2.6c-0.1-0.6-0.4-1.2-0.8-1.7
			c-0.5-0.7-1.2-1.2-2-1.6c-1.3-0.7-2.7-1-4.2-1.1c-1,0-2,0.1-3,0.3c-1.4,0.3-2.7,0.7-3.9,1.4c-1.2,0.7-2.2,1.5-3,2.6
			c-0.3,0.4-0.6,0.9-0.7,1.4c-0.3,0.9-0.3,1.7-0.2,2.6c0.1,0.4,0.2,0.8,0.5,1.1c0.5,0.6,1.1,1.1,1.8,1.5c0.8,0.5,1.7,0.8,2.7,1
			C784.1,25.1,784.9,25.2,785.8,25.2z M774.1,47.7c0.5,0,1,0,1.4-0.1c0.9-0.1,1.8-0.4,2.6-0.8c0.6-0.3,1.1-0.7,1.5-1.2
			c1-1.2,1.2-2.5,0.9-3.9c-0.2-0.7-0.5-1.4-0.9-2c-0.9-1.4-2.1-2.4-3.6-3.2c-1.3-0.7-2.6-1.1-4.1-1.2c-0.9-0.1-1.7-0.1-2.6,0.1
			c-2.5,0.4-4.5,2.6-4.6,4.9c0,0.5,0,1,0.1,1.5c0.2,0.6,0.5,1.2,0.9,1.8c0.5,0.7,1.1,1.3,1.7,1.8c1.4,1.2,3.1,2,4.9,2.2
			C772.9,47.6,773.5,47.7,774.1,47.7z M773,15.4c1.3,0,1.9-0.1,3-0.3c2.1-0.5,4-1.5,5.5-3c0.9-0.9,1.6-2,2-3.3
			c0.2-0.6,0.3-1.3,0.2-1.9c-0.2-0.9-0.6-1.7-1.3-2.4c-0.9-0.8-2-1.3-3.2-1.5c-0.9-0.1-1.8-0.1-2.6,0c-1.8,0.3-3.4,0.9-4.9,1.9
			c-1.4,1-2.5,2.2-3.3,3.8c-0.5,1.1-0.7,2.2-0.5,3.3c0.1,0.9,0.5,1.6,1.2,2.2c0.8,0.6,1.7,1,2.7,1.1C772,15.4,772.5,15.4,773,15.4z"
			/>
		<path class="st0" d="M752.3,33.6c0-1.3,0.3-2.6,0.8-3.8c0.2-0.6,0.5-1.2,0.7-1.8c0.2-0.6,0.3-1.1,0.2-1.7c0-0.4-0.1-0.9-0.2-1.3
			c-0.3-1.2-0.6-2.3-0.9-3.5c-0.2-0.9-0.4-1.8-0.5-2.8c-0.1-1-0.1-2-0.1-3.1c0-0.8,0.2-1.5,0.4-2.2c0.2-0.8,0.6-1.4,1.1-2.1
			c0.8-1,1.9-1.5,3.2-1.5c0.5,0,1,0.1,1.4,0.2c1.5,0.4,2.9,0.9,4.3,1.7c2.8,1.5,5.2,3.4,7.4,5.7c1.1,1.2,2.1,2.5,2.9,3.9
			c0.3,0.5,0.5,1.1,0.7,1.6c0.4,1.1,0.5,2.3,0.1,3.5c-0.2,0.8-0.6,1.6-1.1,2.4c-0.7,1.1-1.5,2.1-2.4,3.1c-1.6,1.6-3.3,3-5.2,4.1
			c-1.5,0.9-3,1.7-4.6,2.3c-0.9,0.3-1.8,0.6-2.7,0.7c-0.7,0.1-1.4,0.1-2.1-0.1c-0.8-0.2-1.5-0.7-2-1.2c-0.7-0.7-1.2-1.5-1.3-2.5
			c-0.1-0.2-0.1-0.5-0.1-0.8C752.3,34.2,752.3,33.9,752.3,33.6z"/>
		<path class="st0" d="M788.2,39.2c-0.6,0-1.3,0-1.9-0.1c-1.4-0.2-2.7-0.5-3.9-1.1c-1.2-0.6-2.2-1.3-3.1-2.2
			c-0.4-0.4-0.8-0.9-1.1-1.4c-0.5-0.8-0.6-1.7-0.5-2.6c0.2-1.7,1.1-2.9,2.5-3.8c0.7-0.5,1.5-0.7,2.3-0.9c1.1-0.2,2.2-0.3,3.3-0.2
			c1.7,0.2,3.4,0.7,4.9,1.4c1.1,0.5,2.1,1.2,2.9,2.1c0.8,0.8,1.4,1.7,1.7,2.7c0.5,1.4,0.2,2.7-0.7,3.8c-0.6,0.8-1.5,1.3-2.5,1.7
			c-0.8,0.3-1.6,0.5-2.5,0.6C789.3,39.2,788.8,39.2,788.2,39.2z"/>
		<path class="st0" d="M785.8,25.2c-0.9,0-1.7,0-2.5-0.2c-0.9-0.2-1.8-0.5-2.7-1c-0.7-0.4-1.3-0.9-1.8-1.5c-0.3-0.3-0.4-0.7-0.5-1.1
			c-0.1-0.9-0.1-1.8,0.2-2.6c0.2-0.5,0.4-0.9,0.7-1.4c0.8-1.1,1.8-2,3-2.6c1.2-0.7,2.6-1.1,3.9-1.4c1-0.2,2-0.3,3-0.3
			c1.5,0.1,2.9,0.4,4.2,1.1c0.8,0.4,1.4,0.9,2,1.6c0.4,0.5,0.7,1.1,0.8,1.7c0.2,0.9,0,1.8-0.4,2.6c-0.5,1-1.3,1.8-2.2,2.5
			c-1,0.8-2.1,1.3-3.3,1.8c-1.3,0.5-2.7,0.8-4,0.8C786.2,25.1,785.9,25.2,785.8,25.2z"/>
		<path class="st0" d="M774.1,47.7c-0.6,0-1.2,0-1.7-0.1c-1.9-0.3-3.5-1-4.9-2.2c-0.6-0.6-1.2-1.2-1.7-1.8c-0.4-0.5-0.7-1.1-0.9-1.8
			c-0.1-0.5-0.1-1-0.1-1.5c0.1-2.4,2.1-4.5,4.6-4.9c0.9-0.2,1.7-0.1,2.6-0.1c1.4,0.2,2.8,0.6,4.1,1.2c1.5,0.8,2.7,1.8,3.6,3.2
			c0.4,0.6,0.8,1.3,0.9,2c0.3,1.4,0.1,2.8-0.9,3.9c-0.4,0.5-0.9,0.9-1.5,1.2c-0.8,0.4-1.7,0.7-2.6,0.8
			C775,47.6,774.5,47.7,774.1,47.7z"/>
		<path class="st0" d="M773,15.4c-0.5,0-0.9,0-1.4-0.1c-1-0.1-1.9-0.5-2.7-1.1c-0.7-0.6-1.1-1.3-1.2-2.2c-0.2-1.2,0-2.3,0.5-3.3
			c0.7-1.6,1.9-2.8,3.3-3.8c1.5-1,3.1-1.7,4.9-1.9c0.9-0.1,1.8-0.2,2.6,0c1.2,0.2,2.3,0.6,3.2,1.5c0.7,0.6,1.2,1.4,1.3,2.4
			c0.1,0.7,0,1.3-0.2,1.9c-0.4,1.3-1.1,2.3-2,3.3c-1.5,1.5-3.4,2.5-5.5,3C774.9,15.4,774.2,15.4,773,15.4z"/>
	</g>
	<g>
		<path class="st0" d="M859.4,86.6c0,0.3,0,0.6,0,0.9c0,0.3,0,0.5,0.1,0.8c0.4,1.7,1.4,2.9,2.9,3.6c0.3,0.1,0.7,0.2,1,0.3
			c0.5,0.1,1.1,0,1.6-0.1c0.9-0.1,1.8-0.4,2.7-0.7c1.7-0.6,3.2-1.5,4.7-2.4c1.8-1.2,3.5-2.5,5-4c0.9-0.9,1.7-1.9,2.3-3
			c0.5-0.8,0.9-1.7,1.2-2.6c0.3-1.1,0.3-2.2-0.1-3.2c-0.2-0.5-0.4-1-0.6-1.5c-0.7-1.4-1.6-2.7-2.7-3.8c-2.1-2.2-4.4-4.1-7-5.6
			c-1.4-0.8-2.8-1.5-4.4-1.9c-0.6-0.2-1.2-0.3-1.8-0.4c-1.4-0.1-2.6,0.4-3.5,1.5c-0.6,0.7-1,1.5-1.2,2.4c-0.2,0.6-0.3,1.3-0.3,1.9
			c0,1,0,2.1,0.1,3.1c0.1,0.9,0.3,1.8,0.5,2.7c0.3,1.2,0.6,2.3,0.9,3.5c0.1,0.4,0.2,0.9,0.2,1.3c0.1,0.6-0.1,1.1-0.2,1.7
			c-0.2,0.6-0.4,1.2-0.7,1.8C859.7,84,859.4,85.3,859.4,86.6z M895.5,92.2C895.5,92.2,895.5,92.2,895.5,92.2c0.1,0,0.2,0,0.3,0
			c0.9,0,1.7-0.1,2.5-0.3c1.2-0.3,2.2-0.8,3.1-1.6c0.4-0.4,0.7-0.8,0.9-1.3c0.4-0.9,0.5-1.7,0.2-2.7c-0.2-0.5-0.4-1.1-0.7-1.6
			c-0.6-0.9-1.3-1.7-2.2-2.3c-2-1.4-4.2-2.3-6.6-2.6c-1.2-0.1-2.4-0.1-3.6,0.2c-0.9,0.2-1.7,0.5-2.4,1.1c-1.2,0.9-2.1,2.1-2.2,3.6
			c-0.1,0.9,0,1.8,0.5,2.6c0.3,0.6,0.8,1.2,1.3,1.7c0.8,0.7,1.6,1.3,2.5,1.8c1.5,0.8,3.2,1.3,4.9,1.4
			C894.5,92.2,895,92.2,895.5,92.2z M892.6,78.1c1.6,0,3.1-0.3,4.6-0.8c1.3-0.4,2.4-1,3.5-1.8c0.9-0.7,1.7-1.5,2.2-2.6
			c0.4-0.8,0.6-1.7,0.4-2.6c-0.1-0.7-0.4-1.3-0.9-1.8c-0.6-0.7-1.3-1.2-2.1-1.6c-1.5-0.7-3.1-1-4.7-1c-0.9,0-1.8,0.1-2.6,0.3
			c-1.4,0.3-2.7,0.8-3.9,1.5c-1.2,0.7-2.1,1.6-2.9,2.7c-0.2,0.4-0.5,0.7-0.6,1.2c-0.3,0.9-0.3,1.7-0.2,2.6c0.1,0.4,0.2,0.8,0.5,1.1
			c0.6,0.8,1.5,1.4,2.4,1.8C889.7,77.9,891.1,78.2,892.6,78.1z M881.1,100.7c0.8,0,1.5,0,2.3-0.2c1-0.2,2-0.6,2.8-1.3
			c1-0.8,1.5-1.9,1.5-3.1c0.1-0.9-0.2-1.7-0.5-2.4c-0.8-1.6-2-2.9-3.5-3.8c-1.5-0.9-3.1-1.4-4.8-1.6c-0.8-0.1-1.6-0.1-2.4,0.1
			c-2.4,0.4-4.5,2.5-4.6,4.9c0,0.5,0,1,0.1,1.5c0.2,0.7,0.5,1.3,0.9,1.8c0.8,1,1.7,1.9,2.8,2.6c1.2,0.8,2.5,1.3,4,1.4
			C880.1,100.6,880.6,100.6,881.1,100.7z M880.1,68.4c1,0,1.9-0.1,2.9-0.3c2.1-0.5,4-1.5,5.6-3.1c0.9-0.9,1.6-2,2-3.3
			c0.2-0.6,0.3-1.3,0.2-1.9c-0.2-0.9-0.5-1.6-1.2-2.2c-1-1-2.2-1.5-3.6-1.7c-0.8-0.1-1.6-0.1-2.5,0.1c-1.9,0.3-3.6,1-5.1,2.1
			c-1.3,1-2.4,2.2-3,3.6c-0.5,1.1-0.7,2.2-0.5,3.3c0.1,0.8,0.5,1.6,1.2,2.1c0.8,0.7,1.8,1.1,2.9,1.1
			C879.3,68.4,879.7,68.4,880.1,68.4z"/>
		<path class="st0" d="M859.4,86.6c0-1.3,0.3-2.6,0.8-3.8c0.2-0.6,0.5-1.2,0.7-1.8c0.2-0.5,0.3-1.1,0.2-1.7c0-0.4-0.1-0.9-0.2-1.3
			c-0.3-1.2-0.6-2.3-0.9-3.5c-0.2-0.9-0.4-1.8-0.5-2.7c-0.1-1-0.1-2-0.1-3.1c0-0.6,0.1-1.3,0.3-1.9c0.2-0.9,0.6-1.7,1.2-2.4
			c0.9-1.1,2.1-1.6,3.5-1.5c0.6,0,1.2,0.2,1.8,0.4c1.5,0.4,3,1.1,4.4,1.9c2.6,1.5,5,3.4,7,5.6c1.1,1.1,2,2.4,2.7,3.8
			c0.2,0.5,0.4,1,0.6,1.5c0.4,1.1,0.4,2.1,0.1,3.2c-0.2,0.9-0.7,1.8-1.2,2.6c-0.7,1.1-1.5,2.1-2.3,3c-1.5,1.5-3.2,2.9-5,4
			c-1.5,1-3.1,1.8-4.7,2.4c-0.9,0.3-1.8,0.6-2.7,0.7c-0.5,0.1-1.1,0.1-1.6,0.1c-0.3,0-0.7-0.1-1-0.3c-1.6-0.7-2.5-1.9-2.9-3.6
			c-0.1-0.2-0.1-0.5-0.1-0.8C859.4,87.2,859.4,86.9,859.4,86.6z"/>
		<path class="st0" d="M895.5,92.2c-0.5,0-1,0-1.5,0c-1.7-0.1-3.4-0.6-4.9-1.4c-0.9-0.5-1.7-1.1-2.5-1.8c-0.5-0.5-1-1-1.3-1.7
			c-0.4-0.8-0.6-1.7-0.5-2.6c0.2-1.6,1-2.7,2.2-3.6c0.7-0.5,1.6-0.8,2.4-1.1c1.2-0.3,2.4-0.3,3.6-0.2c2.4,0.3,4.7,1.1,6.6,2.6
			c0.9,0.6,1.6,1.4,2.2,2.3c0.3,0.5,0.5,1,0.7,1.6c0.3,0.9,0.2,1.8-0.2,2.7c-0.2,0.5-0.5,0.9-0.9,1.3c-0.9,0.8-1.9,1.3-3.1,1.6
			c-0.8,0.2-1.7,0.3-2.5,0.3C895.7,92.2,895.6,92.2,895.5,92.2C895.5,92.2,895.5,92.2,895.5,92.2z"/>
		<path class="st0" d="M892.6,78.1c-1.5,0-2.9-0.2-4.2-0.8c-0.9-0.4-1.8-1-2.4-1.8c-0.3-0.3-0.4-0.7-0.5-1.1
			c-0.1-0.9-0.1-1.8,0.2-2.6c0.1-0.4,0.3-0.8,0.6-1.2c0.8-1.1,1.8-2,2.9-2.7c1.2-0.7,2.5-1.2,3.9-1.5c0.9-0.2,1.7-0.3,2.6-0.3
			c1.6,0,3.2,0.2,4.7,1c0.8,0.4,1.5,0.9,2.1,1.6c0.5,0.5,0.8,1.1,0.9,1.8c0.2,0.9,0,1.8-0.4,2.6c-0.5,1.1-1.3,1.9-2.2,2.6
			c-1.1,0.8-2.3,1.4-3.5,1.8C895.7,77.9,894.2,78.1,892.6,78.1z"/>
		<path class="st0" d="M881.1,100.7c-0.5,0-1,0-1.6-0.1c-1.4-0.2-2.8-0.6-4-1.4c-1.1-0.7-2-1.6-2.8-2.6c-0.4-0.6-0.7-1.2-0.9-1.8
			c-0.1-0.5-0.1-1-0.1-1.5c0.1-2.4,2.2-4.5,4.6-4.9c0.8-0.1,1.6-0.1,2.4-0.1c1.7,0.1,3.3,0.7,4.8,1.6c1.5,0.9,2.8,2.2,3.5,3.8
			c0.4,0.8,0.6,1.6,0.5,2.4c-0.1,1.2-0.6,2.3-1.5,3.1c-0.8,0.7-1.8,1.1-2.8,1.3C882.7,100.6,881.9,100.7,881.1,100.7z"/>
		<path class="st0" d="M880.1,68.4c-0.4,0-0.8,0-1.2,0c-1.1-0.1-2.1-0.5-2.9-1.1c-0.7-0.5-1-1.3-1.2-2.1c-0.2-1.2,0-2.3,0.5-3.3
			c0.7-1.5,1.7-2.7,3-3.6c1.5-1.1,3.2-1.8,5.1-2.1c0.8-0.1,1.6-0.1,2.5-0.1c1.4,0.1,2.6,0.7,3.6,1.7c0.6,0.6,1,1.4,1.2,2.2
			c0.1,0.7,0,1.3-0.2,1.9c-0.4,1.3-1.1,2.3-2,3.3c-1.6,1.6-3.4,2.6-5.6,3.1C882,68.3,881,68.4,880.1,68.4z"/>
	</g>
	<g>
		<path class="st0" d="M1073.6,88.2c0,0.3,0,0.6,0,0.9c0,0.3,0,0.5,0.1,0.8c0.4,1.7,1.4,2.9,2.9,3.6c0.3,0.1,0.7,0.2,1,0.3
			c0.5,0.1,1.1,0,1.6-0.1c0.9-0.1,1.8-0.4,2.7-0.7c1.7-0.6,3.2-1.5,4.7-2.4c1.8-1.2,3.5-2.5,5-4c0.9-0.9,1.7-1.9,2.3-3
			c0.5-0.8,0.9-1.7,1.2-2.6c0.3-1.1,0.3-2.2-0.1-3.2c-0.2-0.5-0.4-1-0.6-1.5c-0.7-1.4-1.6-2.7-2.7-3.8c-2.1-2.2-4.4-4.1-7-5.6
			c-1.4-0.8-2.8-1.5-4.4-1.9c-0.6-0.2-1.2-0.3-1.8-0.4c-1.4-0.1-2.6,0.4-3.5,1.5c-0.6,0.7-1,1.5-1.2,2.4c-0.2,0.6-0.3,1.3-0.3,1.9
			c0,1,0,2.1,0.1,3.1c0.1,0.9,0.3,1.8,0.5,2.7c0.3,1.2,0.6,2.3,0.9,3.5c0.1,0.4,0.2,0.9,0.2,1.3c0.1,0.6-0.1,1.1-0.2,1.7
			c-0.2,0.6-0.4,1.2-0.7,1.8C1073.9,85.6,1073.6,86.8,1073.6,88.2z M1109.7,93.8C1109.7,93.8,1109.7,93.8,1109.7,93.8
			c0.1,0,0.2,0,0.3,0c0.9,0,1.7-0.1,2.5-0.3c1.2-0.3,2.2-0.8,3.1-1.6c0.4-0.4,0.7-0.8,0.9-1.3c0.4-0.9,0.5-1.7,0.2-2.7
			c-0.2-0.5-0.4-1.1-0.7-1.6c-0.6-0.9-1.3-1.7-2.2-2.3c-2-1.4-4.2-2.3-6.6-2.6c-1.2-0.1-2.4-0.1-3.6,0.2c-0.9,0.2-1.7,0.5-2.4,1.1
			c-1.2,0.9-2.1,2.1-2.2,3.6c-0.1,0.9,0,1.8,0.5,2.6c0.3,0.6,0.8,1.2,1.3,1.7c0.8,0.7,1.6,1.3,2.5,1.8c1.5,0.8,3.2,1.3,4.9,1.4
			C1108.7,93.8,1109.2,93.8,1109.7,93.8z M1106.8,79.7c1.6,0,3.1-0.3,4.6-0.8c1.3-0.4,2.4-1,3.5-1.8c0.9-0.7,1.7-1.5,2.2-2.6
			c0.4-0.8,0.6-1.7,0.4-2.6c-0.1-0.7-0.4-1.3-0.9-1.8c-0.6-0.7-1.3-1.2-2.1-1.6c-1.5-0.7-3.1-1-4.7-1c-0.9,0-1.8,0.1-2.6,0.3
			c-1.4,0.3-2.7,0.8-3.9,1.5c-1.2,0.7-2.1,1.6-2.9,2.7c-0.2,0.4-0.5,0.7-0.6,1.2c-0.3,0.9-0.3,1.7-0.2,2.6c0.1,0.4,0.2,0.8,0.5,1.1
			c0.6,0.8,1.5,1.4,2.4,1.8C1103.9,79.5,1105.4,79.7,1106.8,79.7z M1095.4,102.2c0.8,0,1.5,0,2.3-0.2c1-0.2,2-0.6,2.8-1.3
			c1-0.8,1.5-1.9,1.5-3.1c0.1-0.9-0.2-1.7-0.5-2.4c-0.8-1.6-2-2.9-3.5-3.8c-1.5-0.9-3.1-1.4-4.8-1.6c-0.8-0.1-1.6-0.1-2.4,0.1
			c-2.4,0.4-4.5,2.5-4.6,4.9c0,0.5,0,1,0.1,1.5c0.2,0.7,0.5,1.3,0.9,1.8c0.8,1,1.7,1.9,2.8,2.6c1.2,0.8,2.5,1.3,4,1.4
			C1094.3,102.2,1094.8,102.2,1095.4,102.2z M1094.3,70c1,0,1.9-0.1,2.9-0.3c2.1-0.5,4-1.5,5.6-3.1c0.9-0.9,1.6-2,2-3.3
			c0.2-0.6,0.3-1.3,0.2-1.9c-0.2-0.9-0.5-1.6-1.2-2.2c-1-1-2.2-1.5-3.6-1.7c-0.8-0.1-1.6-0.1-2.5,0.1c-1.9,0.3-3.6,1-5.1,2.1
			c-1.3,1-2.4,2.2-3,3.6c-0.5,1.1-0.7,2.2-0.5,3.3c0.1,0.8,0.5,1.6,1.2,2.1c0.8,0.7,1.8,1.1,2.9,1.1C1093.5,70,1093.9,70,1094.3,70z
			"/>
		<path class="st0" d="M1073.6,88.2c0-1.3,0.3-2.6,0.8-3.8c0.2-0.6,0.5-1.2,0.7-1.8c0.2-0.5,0.3-1.1,0.2-1.7c0-0.4-0.1-0.9-0.2-1.3
			c-0.3-1.2-0.6-2.3-0.9-3.5c-0.2-0.9-0.4-1.8-0.5-2.7c-0.1-1-0.1-2-0.1-3.1c0-0.6,0.1-1.3,0.3-1.9c0.2-0.9,0.6-1.7,1.2-2.4
			c0.9-1.1,2.1-1.6,3.5-1.5c0.6,0,1.2,0.2,1.8,0.4c1.5,0.4,3,1.1,4.4,1.9c2.6,1.5,5,3.4,7,5.6c1.1,1.1,2,2.4,2.7,3.8
			c0.2,0.5,0.4,1,0.6,1.5c0.4,1.1,0.4,2.1,0.1,3.2c-0.2,0.9-0.7,1.8-1.2,2.6c-0.7,1.1-1.5,2.1-2.3,3c-1.5,1.5-3.2,2.9-5,4
			c-1.5,1-3.1,1.8-4.7,2.4c-0.9,0.3-1.8,0.6-2.7,0.7c-0.5,0.1-1.1,0.1-1.6,0.1c-0.3,0-0.7-0.1-1-0.3c-1.6-0.7-2.5-1.9-2.9-3.6
			c-0.1-0.2-0.1-0.5-0.1-0.8C1073.6,88.8,1073.6,88.5,1073.6,88.2z"/>
		<path class="st0" d="M1109.7,93.8c-0.5,0-1,0-1.5,0c-1.7-0.1-3.4-0.6-4.9-1.4c-0.9-0.5-1.7-1.1-2.5-1.8c-0.5-0.5-1-1-1.3-1.7
			c-0.4-0.8-0.6-1.7-0.5-2.6c0.2-1.6,1-2.7,2.2-3.6c0.7-0.5,1.6-0.8,2.4-1.1c1.2-0.3,2.4-0.3,3.6-0.2c2.4,0.3,4.7,1.1,6.6,2.6
			c0.9,0.6,1.6,1.4,2.2,2.3c0.3,0.5,0.5,1,0.7,1.6c0.3,0.9,0.2,1.8-0.2,2.7c-0.2,0.5-0.5,0.9-0.9,1.3c-0.9,0.8-1.9,1.3-3.1,1.6
			c-0.8,0.2-1.7,0.3-2.5,0.3C1109.9,93.8,1109.8,93.8,1109.7,93.8C1109.7,93.8,1109.7,93.8,1109.7,93.8z"/>
		<path class="st0" d="M1106.8,79.7c-1.5,0-2.9-0.2-4.2-0.8c-0.9-0.4-1.8-1-2.4-1.8c-0.3-0.3-0.4-0.7-0.5-1.1
			c-0.1-0.9-0.1-1.8,0.2-2.6c0.1-0.4,0.3-0.8,0.6-1.2c0.8-1.1,1.8-2,2.9-2.7c1.2-0.7,2.5-1.2,3.9-1.5c0.9-0.2,1.7-0.3,2.6-0.3
			c1.6,0,3.2,0.2,4.7,1c0.8,0.4,1.5,0.9,2.1,1.6c0.5,0.5,0.8,1.1,0.9,1.8c0.2,0.9,0,1.8-0.4,2.6c-0.5,1.1-1.3,1.9-2.2,2.6
			c-1.1,0.8-2.3,1.4-3.5,1.8C1109.9,79.5,1108.4,79.7,1106.8,79.7z"/>
		<path class="st0" d="M1095.4,102.2c-0.5,0-1,0-1.6-0.1c-1.4-0.2-2.8-0.6-4-1.4c-1.1-0.7-2-1.6-2.8-2.6c-0.4-0.6-0.7-1.2-0.9-1.8
			c-0.1-0.5-0.1-1-0.1-1.5c0.1-2.4,2.2-4.5,4.6-4.9c0.8-0.1,1.6-0.1,2.4-0.1c1.7,0.1,3.3,0.7,4.8,1.6c1.5,0.9,2.8,2.2,3.5,3.8
			c0.4,0.8,0.6,1.6,0.5,2.4c-0.1,1.2-0.6,2.3-1.5,3.1c-0.8,0.7-1.8,1.1-2.8,1.3C1096.9,102.2,1096.1,102.2,1095.4,102.2z"/>
		<path class="st0" d="M1094.3,70c-0.4,0-0.8,0-1.2,0c-1.1-0.1-2.1-0.5-2.9-1.1c-0.7-0.5-1-1.3-1.2-2.1c-0.2-1.2,0-2.3,0.5-3.3
			c0.7-1.5,1.7-2.7,3-3.6c1.5-1.1,3.2-1.8,5.1-2.1c0.8-0.1,1.6-0.1,2.5-0.1c1.4,0.1,2.6,0.7,3.6,1.7c0.6,0.6,1,1.4,1.2,2.2
			c0.1,0.7,0,1.3-0.2,1.9c-0.4,1.3-1.1,2.3-2,3.3c-1.6,1.6-3.4,2.6-5.6,3.1C1096.2,69.9,1095.2,70,1094.3,70z"/>
	</g>
	<g>
		<path class="st0" d="M966.5,33.6c0,0.3,0,0.6,0,0.9c0,0.3,0,0.5,0.1,0.8c0.2,1,0.7,1.8,1.3,2.5c0.6,0.6,1.2,1,2,1.2
			c0.7,0.2,1.4,0.2,2.1,0.1c0.9-0.1,1.8-0.4,2.7-0.7c1.6-0.6,3.2-1.4,4.6-2.3c1.9-1.2,3.7-2.5,5.2-4.1c0.9-0.9,1.8-2,2.4-3.1
			c0.4-0.7,0.8-1.5,1.1-2.4c0.3-1.2,0.3-2.3-0.1-3.5c-0.2-0.5-0.4-1.1-0.7-1.6c-0.7-1.5-1.7-2.8-2.9-3.9c-2.2-2.3-4.7-4.1-7.4-5.7
			c-1.4-0.7-2.8-1.3-4.3-1.7c-0.5-0.1-0.9-0.2-1.4-0.2c-1.3,0-2.4,0.5-3.2,1.5c-0.5,0.6-0.9,1.3-1.1,2.1c-0.2,0.7-0.4,1.5-0.4,2.2
			c0,1,0,2,0.1,3.1c0.1,0.9,0.3,1.8,0.5,2.8c0.3,1.2,0.6,2.3,0.9,3.5c0.1,0.4,0.2,0.9,0.2,1.3c0.1,0.6-0.1,1.2-0.2,1.7
			c-0.2,0.6-0.4,1.2-0.7,1.8C966.8,31,966.5,32.3,966.5,33.6z M1002.4,39.2c0.5,0,1,0,1.6-0.1c0.8-0.1,1.7-0.2,2.5-0.6
			c1-0.4,1.8-0.9,2.5-1.7c0.9-1.1,1.2-2.4,0.7-3.8c-0.3-1-0.9-1.9-1.7-2.7c-0.9-0.9-1.9-1.5-2.9-2.1c-1.6-0.8-3.2-1.3-4.9-1.4
			c-1.1-0.1-2.2,0-3.3,0.2c-0.8,0.2-1.6,0.4-2.3,0.9c-1.4,0.9-2.3,2.1-2.5,3.8c-0.1,0.9,0,1.8,0.5,2.6c0.3,0.5,0.7,1,1.1,1.4
			c0.9,0.9,2,1.6,3.1,2.2c1.2,0.6,2.5,1,3.9,1.1C1001.2,39.2,1001.8,39.2,1002.4,39.2z M1000,25.2c0.1,0,0.3,0,0.5,0
			c1.4-0.1,2.7-0.4,4-0.8c1.2-0.4,2.3-1,3.3-1.8c0.9-0.7,1.7-1.5,2.2-2.5c0.4-0.8,0.6-1.7,0.4-2.6c-0.1-0.6-0.4-1.2-0.8-1.7
			c-0.5-0.7-1.2-1.2-2-1.6c-1.3-0.7-2.7-1-4.2-1.1c-1,0-2,0.1-3,0.3c-1.4,0.3-2.7,0.7-3.9,1.4c-1.2,0.7-2.2,1.5-3,2.6
			c-0.3,0.4-0.6,0.9-0.7,1.4c-0.3,0.9-0.3,1.7-0.2,2.6c0.1,0.4,0.2,0.8,0.5,1.1c0.5,0.6,1.1,1.1,1.8,1.5c0.8,0.5,1.7,0.8,2.7,1
			C998.3,25.1,999.1,25.2,1000,25.2z M988.3,47.7c0.5,0,1,0,1.4-0.1c0.9-0.1,1.8-0.4,2.6-0.8c0.6-0.3,1.1-0.7,1.5-1.2
			c1-1.2,1.2-2.5,0.9-3.9c-0.2-0.7-0.5-1.4-0.9-2c-0.9-1.4-2.1-2.4-3.6-3.2c-1.3-0.7-2.6-1.1-4.1-1.2c-0.9-0.1-1.7-0.1-2.6,0.1
			c-2.5,0.4-4.5,2.6-4.6,4.9c0,0.5,0,1,0.1,1.5c0.2,0.6,0.5,1.2,0.9,1.8c0.5,0.7,1.1,1.3,1.7,1.8c1.4,1.2,3.1,2,4.9,2.2
			C987.1,47.6,987.7,47.7,988.3,47.7z M987.2,15.4c1.3,0,1.9-0.1,3-0.3c2.1-0.5,4-1.5,5.5-3c0.9-0.9,1.6-2,2-3.3
			c0.2-0.6,0.3-1.3,0.2-1.9c-0.2-0.9-0.6-1.7-1.3-2.4c-0.9-0.8-2-1.3-3.2-1.5c-0.9-0.1-1.8-0.1-2.6,0c-1.8,0.3-3.4,0.9-4.9,1.9
			c-1.4,1-2.5,2.2-3.3,3.8c-0.5,1.1-0.7,2.2-0.5,3.3c0.1,0.9,0.5,1.6,1.2,2.2c0.8,0.6,1.7,1,2.7,1.1
			C986.3,15.4,986.7,15.4,987.2,15.4z"/>
		<path class="st0" d="M966.5,33.6c0-1.3,0.3-2.6,0.8-3.8c0.2-0.6,0.5-1.2,0.7-1.8c0.2-0.6,0.3-1.1,0.2-1.7c0-0.4-0.1-0.9-0.2-1.3
			c-0.3-1.2-0.6-2.3-0.9-3.5c-0.2-0.9-0.4-1.8-0.5-2.8c-0.1-1-0.1-2-0.1-3.1c0-0.8,0.2-1.5,0.4-2.2c0.2-0.8,0.6-1.4,1.1-2.1
			c0.8-1,1.9-1.5,3.2-1.5c0.5,0,1,0.1,1.4,0.2c1.5,0.4,2.9,0.9,4.3,1.7c2.8,1.5,5.2,3.4,7.4,5.7c1.1,1.2,2.1,2.5,2.9,3.9
			c0.3,0.5,0.5,1.1,0.7,1.6c0.4,1.1,0.5,2.3,0.1,3.5c-0.2,0.8-0.6,1.6-1.1,2.4c-0.7,1.1-1.5,2.1-2.4,3.1c-1.6,1.6-3.3,3-5.2,4.1
			c-1.5,0.9-3,1.7-4.6,2.3c-0.9,0.3-1.8,0.6-2.7,0.7c-0.7,0.1-1.4,0.1-2.1-0.1c-0.8-0.2-1.5-0.7-2-1.2c-0.7-0.7-1.2-1.5-1.3-2.5
			c-0.1-0.2-0.1-0.5-0.1-0.8C966.5,34.2,966.5,33.9,966.5,33.6z"/>
		<path class="st0" d="M1002.4,39.2c-0.6,0-1.3,0-1.9-0.1c-1.4-0.2-2.7-0.5-3.9-1.1c-1.2-0.6-2.2-1.3-3.1-2.2
			c-0.4-0.4-0.8-0.9-1.1-1.4c-0.5-0.8-0.6-1.7-0.5-2.6c0.2-1.7,1.1-2.9,2.5-3.8c0.7-0.5,1.5-0.7,2.3-0.9c1.1-0.2,2.2-0.3,3.3-0.2
			c1.7,0.2,3.4,0.7,4.9,1.4c1.1,0.5,2.1,1.2,2.9,2.1c0.8,0.8,1.4,1.7,1.7,2.7c0.5,1.4,0.2,2.7-0.7,3.8c-0.6,0.8-1.5,1.3-2.5,1.7
			c-0.8,0.3-1.6,0.5-2.5,0.6C1003.5,39.2,1003,39.2,1002.4,39.2z"/>
		<path class="st0" d="M1000,25.2c-0.9,0-1.7,0-2.5-0.2c-0.9-0.2-1.8-0.5-2.7-1c-0.7-0.4-1.3-0.9-1.8-1.5c-0.3-0.3-0.4-0.7-0.5-1.1
			c-0.1-0.9-0.1-1.8,0.2-2.6c0.2-0.5,0.4-0.9,0.7-1.4c0.8-1.1,1.8-2,3-2.6c1.2-0.7,2.6-1.1,3.9-1.4c1-0.2,2-0.3,3-0.3
			c1.5,0.1,2.9,0.4,4.2,1.1c0.8,0.4,1.4,0.9,2,1.6c0.4,0.5,0.7,1.1,0.8,1.7c0.2,0.9,0,1.8-0.4,2.6c-0.5,1-1.3,1.8-2.2,2.5
			c-1,0.8-2.1,1.3-3.3,1.8c-1.3,0.5-2.7,0.8-4,0.8C1000.4,25.1,1000.1,25.2,1000,25.2z"/>
		<path class="st0" d="M988.3,47.7c-0.6,0-1.2,0-1.7-0.1c-1.9-0.3-3.5-1-4.9-2.2c-0.6-0.6-1.2-1.2-1.7-1.8c-0.4-0.5-0.7-1.1-0.9-1.8
			c-0.1-0.5-0.1-1-0.1-1.5c0.1-2.4,2.1-4.5,4.6-4.9c0.9-0.2,1.7-0.1,2.6-0.1c1.4,0.2,2.8,0.6,4.1,1.2c1.5,0.8,2.7,1.8,3.6,3.2
			c0.4,0.6,0.8,1.3,0.9,2c0.3,1.4,0.1,2.8-0.9,3.9c-0.4,0.5-0.9,0.9-1.5,1.2c-0.8,0.4-1.7,0.7-2.6,0.8
			C989.2,47.6,988.7,47.7,988.3,47.7z"/>
		<path class="st0" d="M987.2,15.4c-0.5,0-0.9,0-1.4-0.1c-1-0.1-1.9-0.5-2.7-1.1c-0.7-0.6-1.1-1.3-1.2-2.2c-0.2-1.2,0-2.3,0.5-3.3
			c0.7-1.6,1.9-2.8,3.3-3.8c1.5-1,3.1-1.7,4.9-1.9c0.9-0.1,1.8-0.2,2.6,0c1.2,0.2,2.3,0.6,3.2,1.5c0.7,0.6,1.2,1.4,1.3,2.4
			c0.1,0.7,0,1.3-0.2,1.9c-0.4,1.3-1.1,2.3-2,3.3c-1.5,1.5-3.4,2.5-5.5,3C989.1,15.4,988.4,15.4,987.2,15.4z"/>
	</g>
</g>
</svg>
