<?xml version="1.0" encoding="utf-8"?>
<!-- Generator: Adobe Illustrator 24.0.3, SVG Export Plug-In . SVG Version: 6.00 Build 0)  -->
<svg version="1.1" id="Layer_1" xmlns="http://www.w3.org/2000/svg" xmlns:xlink="http://www.w3.org/1999/xlink" x="0px" y="0px"
	 viewBox="0 0 720 720" style="enable-background:new 0 0 720 720;" xml:space="preserve">
<style type="text/css">
	.st0{fill:#F16144;}
</style>
<g id="BF7PtV.tif">
	<g>
		<polygon class="st0" points="511.2,310.1 511,310.1 511,310 		"/>
	</g>
</g>
<g id="BF7PtV.tif_1_">
	<g>
		<path class="st0" d="M111,1204.9c-7.4,20.1-7.6,38.4,5.2,55.4c2.2,2.9,4.4,5.8,6.6,8.8c6.4,8.4,9.6,17.8,8.9,28.4
			c-0.6,9.1-2.4,18.3-1.6,27.3c0.9,10.6-2,20.4-3.7,30.4c-1.9,11.6-7.5,21-18.9,25.7c-8.1,3.3-16.3,2.8-24.2-0.7
			c-4.4-2-5.1-7.6-1.1-11.3c3.9-3.6,8.1-7.1,12.8-9.5c8.7-4.4,11.1-11.5,11-20.5c-0.3-17.2-5-33.5-10-49.7c-0.4-1.4-1.5-2.6-2.4-3.7
			c-1.8-2.1-3.7-4.2-5.8-6.2c-24.5-24.1-41.5-52.7-50.9-85.6c-1.4-4.8-3.8-6.2-8.5-6.3c-12.9-0.2-25,3.2-37.1,6.7
			c-20.2,5.9-40.3,12.5-60.8,17.4c-10.4,2.5-21.6,1.7-32,2.3c-8.5,32.8-12.9,67.2-14.6,101.9c-0.7,14.9-3.3,29.7-5.2,44.6
			c-0.3,2.4-1,5.3-2.6,6.9c-7.4,7.2-8.5,16.6-10,26c-0.6,3.6-1.2,7.2-2,10.8c-2.7,12.3-6.6,16-19.2,16.9c-8.7,0.7-17.5,0.9-26.2,1.4
			c-0.5,0-1,0-1.5,0c-4.2-0.3-8.7-0.6-10.5-5.2c-1.9-4.7,0.6-8.5,4-11.4c4.7-4,9.5-7.8,14.6-11.3c18.2-12.6,25.6-30.6,25.5-51.9
			c0-20.1-0.5-40.3-1.6-60.3c-1.1-21.2-5.9-41.8-13.1-61.7c-0.2-0.6-0.6-1.1-1.5-2.8c-1,5.4-1.9,9.8-2.7,14.1
			c-0.9,4.4-1.9,8.8-2.6,13.2c-5.4,33.4-6.2,66.8-2.4,100.4c0.5,4.6-0.8,8.4-3.9,11.8c-2.3,2.5-4.3,5.4-5.5,8.5
			c-2.4,6.4-4.2,13-6.2,19.5c-1.5,4.9-4.6,8.3-9.4,10.2c-11,4.5-22,8.5-34.2,6.6c-1.5-0.2-3-0.3-4.4-0.8c-5.9-1.9-7.6-5.5-4.8-11
			c1.4-2.7,3.5-5.3,6-7.1c3.7-2.7,7.7-5.4,12.1-6.9c6.7-2.4,10.4-7,11.7-13.5c2.4-12,6.1-24.2,5.9-36.2c-0.4-30.4-1.7-60.9-4.5-91.1
			c-2.4-26.6-7.4-53-11.3-79.4c-3.3-22.6-2-45.1,0.5-67.7c2.3-21.5,5.1-42.9,7.3-64.4c1.7-16.2,0.1-31.9-8.9-46.1
			c-2.1-3.3-4.5-5.5-8.3-6.4c-10.1-2.6-20.2-5.6-30.3-8.2c-13.4-3.4-22-11.6-26.1-24.8c-1.5-4.7-3.7-9.2-5.8-13.7
			c-2.5-5.4-1.2-8.3,4.5-10.1c15-4.8,30-9.7,45.1-14.5c4.5-1.4,7-4.5,8-8.8c1.9-8,6.8-13,14.4-15.8c10.9-4,21.5-8.8,32.6-12.2
			c14.4-4.3,28.9-2.8,42.1,4.5c10.9,6,21.6,12.7,31.2,20.5c4.6,3.8,6.8,10.7,9.3,16.6c0.6,1.3-1.8,4.8-3.7,6
			c-3.3,2.2-7.2,3.3-10.8,5c-2.3,1.1-3.9,2.5-2.7,5.4c8.5,20.6,10.8,42.8,15.5,64.3c1.8,8.4,4.9,16.6,7.1,24.9
			c1.9,7,6.3,11.8,12,15.9c15.7,11.1,33.4,17.7,52,20.4c28.4,4.2,57,7.2,85.6,10.1c31.8,3.2,63.5,6.2,94.3,15.6
			c27.2,8.3,54.5,5.8,80.8-3.8c13.5-4.9,26.7-11.1,39.3-18c15.1-8.3,24.7-21.4,28.2-38.6c0.4-2.1,1.2-4.2,1.8-6.2
			c0.1-0.3,0.4-0.5,0.6-0.7c3.4,10.8-1.2,32.1-10.4,42.2c-6.5,7.2-14,13.9-22.3,19c-32.6,20.2-68.4,28.6-106.7,25.9
			c-0.8-0.1-1.6,0-3.2,0c1.2,2.1,2.1,3.8,3.1,5.5c10.1,17.5,20.1,35.1,22.7,55.5c2,16.3,3,32.8,3.2,49.2c0.2,17.9,2.4,35.5,5.7,53
			c2.2,11.8,6.5,22.8,13.6,32.4c5.2,7,7.8,14.5,7.7,23.1c0,3.3,0.4,6.7,0.1,10c-1.7,16.9,0.4,33.5,2.6,50.2
			c1.6,12-1.5,23.4-7.9,33.8c-5.8,9.4-20,10-28.3,7.2c-1.4-0.5-2.9-3.9-2.5-5.4c1.2-4.3,2.5-8.9,5.2-12.2
			c16.3-19.8,13.5-41.6,5.7-62.8c-6.7-18.2-16-35.4-24.8-52.8c-2.9-5.7-7.3-10.7-11.5-15.6c-13.8-16.2-25-34-32.7-53.9
			C112.5,1208,111.9,1206.9,111,1204.9z"/>
	</g>
</g>
<path class="st0" d="M618.5,290.2c-6.5,7.2-14,13.9-22.3,19c-32.6,20.2-68.4,28.6-106.7,25.9c-0.8-0.1-1.6,0-3.2,0l-52.2-7.9l4-20.9
	c13.4,2.2,26.8,5,40,9.1c2.7,0.8,5.4,1.5,8.1,2.2l0,0c24.5,5.6,49,2.7,72.7-6c13.5-4.9,26.7-11.1,39.3-18
	c15.1-8.3,24.7-21.4,28.2-38.6c0.4-2.1,1.2-4.2,1.8-6.2c0.1-0.3,0.4-0.5,0.6-0.7C632.3,258.7,627.7,280.1,618.5,290.2z"/>
<path class="st0" d="M539,642.9c-5.8,9.4-20,10-28.3,7.2c-1.3-0.5-2.9-3.9-2.5-5.4c1.2-4.3,2.5-8.9,5.2-12.2
	c16.3-19.8,13.5-41.6,5.7-62.8c-6.7-18.2-16-35.4-24.8-52.8c-2.9-5.7-7.3-10.7-11.5-15.6c-13.8-16.2-25-34-32.8-53.9
	c-0.4-1.1-0.9-2.1-1.9-4.2c-7.4,20.1-7.6,38.4,5.2,55.4c2.2,2.9,4.4,5.9,6.6,8.8c6.4,8.4,9.6,17.8,8.9,28.4
	c-0.6,9.1-2.4,18.3-1.6,27.3c0.9,10.6-2,20.4-3.6,30.4c-1.9,11.6-7.5,21-19,25.7c-8.1,3.3-16.3,2.8-24.2-0.7
	c-4.5-2-5.1-7.6-1.1-11.3c3.8-3.6,8.1-7.1,12.8-9.5c8.7-4.4,11.1-11.5,11-20.5c-0.3-17.2-5-33.5-10-49.7c-0.4-1.4-1.5-2.6-2.4-3.7
	c-1.8-2.1-3.8-4.2-5.8-6.2c-24.5-24.1-41.5-52.7-50.9-85.6c-1.4-4.8-3.8-6.2-8.5-6.3c-12.9-0.2-25,3.2-37.1,6.7
	c-20.2,5.9-40.3,12.5-60.8,17.4c-10.4,2.5-21.7,1.7-32,2.3c-8.5,32.8-12.9,67.2-14.6,101.9c-0.8,14.9-3.3,29.7-5.2,44.6
	c-0.3,2.4-1,5.3-2.6,6.9c-7.4,7.2-8.5,16.6-10,26c-0.6,3.6-1.2,7.2-2,10.8c-2.7,12.3-6.6,15.9-19.2,16.9c-8.7,0.7-17.5,0.9-26.2,1.4
	c-0.5,0-1,0-1.5,0c-4.2-0.3-8.6-0.6-10.5-5.2c-1.9-4.7,0.6-8.5,4-11.4c4.7-4,9.5-7.8,14.5-11.3c18.2-12.6,25.6-30.6,25.5-51.9
	c0-20.1-0.5-40.3-1.5-60.3c-1.1-21.2-5.9-41.8-13.1-61.7c-0.2-0.6-0.6-1.1-1.5-2.8c-1,5.4-1.9,9.8-2.7,14.1
	c-0.9,4.4-1.9,8.8-2.6,13.2c-5.4,33.4-6.2,66.8-2.3,100.4c0.5,4.6-0.8,8.4-3.9,11.8c-2.2,2.5-4.3,5.4-5.5,8.5
	c-2.4,6.4-4.2,13-6.2,19.5c-1.5,4.9-4.6,8.3-9.4,10.2c-11,4.5-22,8.5-34.2,6.6c-1.5-0.2-3-0.4-4.4-0.8c-5.9-1.9-7.6-5.5-4.8-11
	c1.4-2.7,3.5-5.3,6-7.1c3.7-2.7,7.7-5.4,12-6.9c6.7-2.4,10.4-7,11.7-13.5c2.4-12,6.1-24.2,5.9-36.2c-0.4-30.4-1.7-60.9-4.5-91.1
	c-2.5-26.6-7.4-53-11.3-79.5c-3.3-22.6-2-45.1,0.5-67.7c2.3-21.5,5.1-42.9,7.3-64.4c1.7-16.2,0.1-31.9-8.9-46.1
	c-2.1-3.3-4.5-5.5-8.3-6.4c-10.2-2.5-20.2-5.6-30.3-8.1c-13.4-3.4-22-11.6-26.1-24.8c-1.5-4.7-3.7-9.2-5.8-13.7
	c-2.5-5.4-1.2-8.3,4.5-10.1c15-4.8,30-9.7,45.1-14.5c4.5-1.4,7-4.5,8-8.8c1.9-8,6.8-13,14.4-15.8c10.9-4,21.5-8.8,32.6-12.1
	c14.4-4.4,28.9-2.8,42.1,4.5c10.9,6,21.6,12.7,31.2,20.5c4.6,3.8,6.8,10.7,9.3,16.6c0.6,1.3-1.8,4.8-3.7,6c-3.3,2.2-7.2,3.3-10.8,5
	c-2.3,1-4,2.5-2.7,5.4c8.5,20.6,10.8,42.8,15.5,64.3c1.8,8.4,4.9,16.5,7.1,24.9c1.9,7,6.3,11.8,12,15.8c15.7,11.1,33.4,17.7,52,20.4
	c28.4,4.2,57,7.2,85.6,10.1c18.2,1.8,36.3,3.6,54.3,6.5l0,0c10.6,1.7,21.2,3.9,31.7,6.7l15.9,21.6c0.1,0.1,0.1,0.2,0.2,0.3l0.1,0.2
	l0,0h0.2c1.2,2.1,2.1,3.8,3.1,5.4c10.1,17.5,20.1,35.1,22.7,55.5c2,16.3,3,32.8,3.2,49.2c0.2,17.9,2.4,35.5,5.7,53
	c2.2,11.8,6.5,22.8,13.6,32.4c5.2,7,7.8,14.5,7.7,23.1c0,3.3,0.4,6.7,0.1,10c-1.7,16.9,0.4,33.5,2.6,50.2
	C548.5,621,545.4,632.5,539,642.9z"/>
</svg>
