<?xml version="1.0" encoding="utf-8"?>
<!-- Generator: Adobe Illustrator 24.0.3, SVG Export Plug-In . SVG Version: 6.00 Build 0)  -->
<svg version="1.1" id="Layer_1" xmlns="http://www.w3.org/2000/svg" xmlns:xlink="http://www.w3.org/1999/xlink" x="0px" y="0px"
	 viewBox="0 0 387.73 389.11" style="enable-background:new 0 0 387.73 389.11;" xml:space="preserve">
<style type="text/css">
	.st0{fill:#C2DBBF;}
</style>
<g id="c7NP3h.tif">
	<g>
		<path class="st0" d="M193.16,200.62c23.37,0.1,38.88,3.01,51.73,13.11c7.45,5.86,13.88,13.23,19.94,20.6
			c21.2,25.76,39.97,53.23,55.85,82.6c5.53,10.22,8.03,21.11,5.43,32.69c-3.38,15.04-13.28,23.92-27.81,27.6
			c-19.16,4.85-37.63,2.83-55.06-6.9c-4.04-2.25-7.95-5-12.28-6.39c-6.19-1.99-12.66-3.72-19.11-4.15
			c-11.86-0.78-23.89-1.42-35.52,1.83c-5.57,1.55-11.19,3.66-16.1,6.66c-14.28,8.73-29.48,12.72-46.19,11.05
			c-7.28-0.73-14.37-2.02-21-5.25c-17.25-8.43-22.52-26.53-19.19-42.36c2.01-9.54,6.81-17.9,11.71-26.09
			c13.79-23.03,28.19-45.68,45.08-66.61c7.36-9.11,14.8-18.29,24.36-25.18C168.48,204.1,183.97,200.54,193.16,200.62z"/>
		<path class="st0" d="M201.16,89.13c0.83-19.47,4.61-37.95,14.82-54.72c5.33-8.76,12.07-16.25,21.51-20.69
			c14.7-6.91,27.97-3.7,39.8,6.6c11.35,9.89,17.7,22.91,21.62,37.12c6.25,22.64,5.92,45.3-1.36,67.68
			c-4.57,14.05-11.61,26.63-23.85,35.61c-14.51,10.64-32.72,9.43-46.05-2.83c-12.87-11.83-19.65-26.93-23.1-43.63
			C202.84,106,202.25,97.51,201.16,89.13z"/>
		<path class="st0" d="M185.86,88.93c-0.84,19.46-4.56,37.94-14.75,54.73c-5.38,8.87-12.19,16.43-21.75,20.87
			c-14.46,6.71-27.59,3.63-39.31-6.42c-10.93-9.38-17.33-21.71-21.29-35.26c-7.62-26.13-6.78-52.02,3.56-77.33
			c4.56-11.17,11.18-20.99,21.17-28.2c14.56-10.5,32.52-9.29,45.81,2.9c12.98,11.9,19.76,27.08,23.21,43.89
			C184.18,72.26,184.78,80.64,185.86,88.93z"/>
		<path class="st0" d="M282.02,201.34c2.14-25.5,13.34-50.18,37.86-67.79c5.89-4.23,12.55-6.88,19.82-7.68
			c13.34-1.47,24.93,5.73,30.27,18.81c4.82,11.79,5.1,23.95,2.62,36.26c-4.4,21.85-14.44,40.5-31.81,54.83
			c-7.04,5.81-15,10.04-24.18,11.02c-13.85,1.48-24.82-5.38-30.48-18.49C283.31,221.76,281.93,214.09,282.02,201.34z"/>
		<path class="st0" d="M105.08,204.49c-0.09,9.83-1.28,18.44-5.46,26.43c-7.04,13.45-20.74,19.11-35.28,14.62
			c-10.85-3.35-19.64-9.81-27.01-18.18c-15.76-17.94-24.32-38.8-24.29-62.83c0.01-7.91,1.61-15.64,5.44-22.71
			c7.48-13.84,20.78-19.24,35.84-14.46c12.91,4.1,22.64,12.59,30.71,23.09C97.48,166.65,104.37,184.94,105.08,204.49z"/>
	</g>
</g>
</svg>
