<?xml version="1.0" encoding="utf-8"?>
<!-- Generator: Adobe Illustrator 24.0.3, SVG Export Plug-In . SVG Version: 6.00 Build 0)  -->
<svg version="1.1" id="Layer_1" xmlns="http://www.w3.org/2000/svg" xmlns:xlink="http://www.w3.org/1999/xlink" x="0px" y="0px"
	 viewBox="0 0 46.4 46.1" style="enable-background:new 0 0 46.4 46.1;" xml:space="preserve">
<style type="text/css">
	.st0{fill:#F16144;}
</style>
<g>
	<path class="st0" d="M31.5,44.9c0.3,0,0.6,0,0.9,0c0.3,0,0.5,0,0.8-0.1c1.7-0.4,2.9-1.4,3.6-2.9c0.1-0.3,0.2-0.7,0.3-1
		c0.1-0.5,0-1.1-0.1-1.6c-0.1-0.9-0.4-1.8-0.7-2.7c-0.6-1.7-1.5-3.2-2.4-4.7c-1.2-1.8-2.5-3.5-4-5c-0.9-0.9-1.9-1.7-3-2.3
		c-0.8-0.5-1.7-0.9-2.6-1.2c-1.1-0.3-2.2-0.3-3.2,0.1c-0.5,0.2-1,0.4-1.5,0.6c-1.4,0.7-2.7,1.6-3.8,2.7c-2.2,2.1-4.1,4.4-5.6,7
		c-0.8,1.4-1.5,2.8-1.9,4.4c-0.3,0.5-0.5,1.1-0.6,1.7c-0.1,1.4,0.4,2.6,1.6,3.5c0.7,0.6,1.5,1,2.4,1.2c0.6,0.1,1.2,0.2,1.8,0.2
		c1,0,2.1,0,3.1-0.1c0.9-0.1,1.8-0.3,2.7-0.5c1.2-0.3,2.3-0.6,3.5-0.9c0.4-0.1,0.9-0.2,1.3-0.2c0.6-0.1,1.1,0.1,1.7,0.2
		c0.6,0.2,1.2,0.4,1.8,0.7C28.9,44.6,30.2,44.9,31.5,44.9z M37.1,8.8L37.1,8.8c0-0.1,0-0.2,0-0.3c0-0.9-0.1-1.7-0.3-2.5
		c-0.3-1.2-0.8-2.2-1.6-3.1c-0.4-0.4-0.8-0.7-1.3-0.9c-0.9-0.4-1.7-0.5-2.7-0.2c-0.5,0.2-1.1,0.4-1.6,0.7c-0.9,0.6-1.7,1.3-2.3,2.2
		c-1.4,2-2.3,4.2-2.6,6.6c-0.1,1.2-0.1,2.4,0.2,3.6c0.2,0.9,0.5,1.7,1.1,2.4c0.9,1.2,2.1,2.1,3.6,2.2c0.9,0.1,1.8,0,2.6-0.5
		c0.6-0.3,1.2-0.8,1.7-1.3c0.7-0.8,1.3-1.6,1.8-2.5c0.8-1.5,1.3-3.2,1.4-4.9C37.1,9.8,37.1,9.3,37.1,8.8z M23,11.7
		c0-1.6-0.3-3.1-0.8-4.6c-0.4-1.3-1-2.4-1.8-3.5c-0.7-0.9-1.5-1.7-2.6-2.2C17,1,16.1,0.8,15.2,1c-0.7,0.1-1.3,0.4-1.8,0.9
		c-0.7,0.6-1.2,1.3-1.6,2.1c-0.7,1.5-1,3.1-1,4.7c0,0.9,0.1,1.8,0.3,2.6c0.3,1.4,0.8,2.7,1.5,3.9s1.6,2.1,2.7,2.9
		c0.4,0.2,0.7,0.5,1.2,0.6c0.9,0.3,1.7,0.3,2.6,0.2c0.4-0.1,0.8-0.2,1.1-0.5c0.8-0.6,1.4-1.5,1.8-2.4C22.8,14.6,23,13.2,23,11.7z
		 M45.5,23.2c0-0.8,0-1.5-0.2-2.3c-0.2-1-0.6-2-1.3-2.8c-0.8-1-1.9-1.5-3.1-1.5c-0.9-0.1-1.7,0.2-2.4,0.5c-1.6,0.8-2.9,2-3.8,3.5
		c-0.9,1.5-1.4,3.1-1.6,4.8C33,26.2,33,27,33.2,27.8c0.4,2.4,2.5,4.5,4.9,4.6c0.5,0,1,0,1.5-0.1c0.7-0.2,1.3-0.5,1.8-0.9
		c1-0.8,1.9-1.7,2.6-2.8c0.8-1.2,1.3-2.5,1.4-4C45.5,24.2,45.5,23.7,45.5,23.2z M13.3,24.2c0-1-0.1-1.9-0.3-2.9
		c-0.5-2.1-1.5-4-3.1-5.6c-0.9-0.9-2-1.6-3.3-2c-0.6-0.2-1.3-0.3-1.9-0.2c-0.9,0.2-1.6,0.5-2.2,1.2c-1,1-1.5,2.2-1.7,3.6
		c-0.1,0.8-0.1,1.6,0.1,2.5c0.3,1.9,1,3.6,2.1,5.1c1,1.3,2.2,2.4,3.6,3c1.1,0.5,2.2,0.7,3.3,0.5c0.8-0.1,1.6-0.5,2.1-1.2
		c0.7-0.8,1.1-1.8,1.1-2.9C13.3,25,13.3,24.6,13.3,24.2z"/>
	<path class="st0" d="M31.5,44.9c-1.3,0-2.6-0.3-3.8-0.8c-0.6-0.2-1.2-0.5-1.8-0.7c-0.5-0.2-1.1-0.3-1.7-0.2c-0.4,0-0.9,0.1-1.3,0.2
		c-1.2,0.3-2.3,0.6-3.5,0.9c-0.9,0.2-1.8,0.4-2.7,0.5c-1,0.1-2,0.1-3.1,0.1c-0.6,0-1.3-0.1-1.9-0.3c-0.9-0.3-1.7-0.7-2.4-1.2
		c-1.1-0.9-1.6-2.1-1.5-3.5c0-0.6,0.2-1.2,0.4-1.8c0.4-1.5,1.1-3,1.9-4.4c1.5-2.6,3.4-5,5.6-7c1.1-1.1,2.4-2,3.8-2.7
		c0.5-0.2,1-0.4,1.5-0.6c1.1-0.4,2.1-0.4,3.2-0.1c0.9,0.2,1.8,0.7,2.6,1.2c1.1,0.7,2.1,1.5,3,2.3c1.5,1.5,2.9,3.2,4,5
		c1,1.5,1.8,3.1,2.4,4.7c0.3,0.9,0.6,1.8,0.7,2.7c0.1,0.5,0.1,1.1,0.1,1.6c0,0.3-0.1,0.7-0.3,1c-0.7,1.6-1.9,2.5-3.6,2.9
		c-0.2,0.1-0.5,0.1-0.8,0.1C32.1,44.9,31.8,44.9,31.5,44.9z"/>
	<path class="st0" d="M37.1,8.8c0,0.5,0,1,0,1.5c-0.1,1.7-0.6,3.4-1.4,4.9c-0.5,0.9-1.1,1.7-1.8,2.5c-0.5,0.5-1,1-1.7,1.3
		c-0.8,0.4-1.7,0.6-2.6,0.5c-1.6-0.2-2.7-1-3.6-2.2c-0.5-0.7-0.8-1.6-1.1-2.4c-0.3-1.2-0.3-2.4-0.2-3.6c0.3-2.4,1.1-4.7,2.6-6.6
		c0.6-0.9,1.4-1.6,2.3-2.2c0.5-0.3,1-0.5,1.6-0.7C32.1,1.5,33,1.6,33.9,2c0.5,0.2,0.9,0.5,1.3,0.9C36,3.8,36.5,4.8,36.8,6
		c0.2,0.8,0.3,1.7,0.3,2.5C37.1,8.6,37.1,8.7,37.1,8.8L37.1,8.8z"/>
	<path class="st0" d="M23,11.7c0,1.5-0.2,2.9-0.8,4.2c-0.4,0.9-1,1.8-1.8,2.4c-0.3,0.3-0.7,0.4-1.1,0.5c-0.9,0.1-1.8,0.1-2.6-0.2
		c-0.4-0.1-0.8-0.3-1.2-0.6c-1.1-0.8-2-1.8-2.7-2.9c-0.7-1.2-1.2-2.5-1.5-3.9C11.1,10.3,11,9.5,11,8.6c0-1.6,0.2-3.2,1-4.7
		c0.4-0.8,0.9-1.5,1.6-2.1c0.5-0.5,1.1-0.8,1.8-0.9c0.9-0.2,1.8,0,2.6,0.4c1.1,0.5,1.9,1.3,2.6,2.2C21.4,4.6,22,5.8,22.4,7
		C22.8,8.6,23,10.1,23,11.7z"/>
	<path class="st0" d="M45.5,23.2c0,0.5,0,1-0.1,1.6c-0.2,1.4-0.6,2.8-1.4,4c-0.7,1.1-1.6,2-2.6,2.8c-0.6,0.4-1.2,0.7-1.8,0.9
		c-0.5,0.1-1,0.1-1.5,0.1c-2.4-0.1-4.5-2.2-4.9-4.6c-0.1-0.8-0.1-1.6-0.1-2.4c0.1-1.7,0.7-3.3,1.6-4.8c0.9-1.5,2.2-2.8,3.8-3.5
		c0.8-0.4,1.6-0.6,2.4-0.5c1.2,0.1,2.3,0.6,3.1,1.5c0.7,0.8,1.1,1.8,1.3,2.8C45.5,21.6,45.5,22.4,45.5,23.2z"/>
	<path class="st0" d="M13.3,24.2c0,0.4,0,0.8,0,1.2c-0.1,1.1-0.5,2.1-1.1,2.9c-0.5,0.7-1.3,1-2.1,1.2c-1.2,0.2-2.3,0-3.3-0.5
		c-1.5-0.7-2.7-1.7-3.6-3c-1.1-1.5-1.8-3.2-2.1-5.1C1,20.1,1,19.3,1,18.4c0.1-1.4,0.7-2.6,1.7-3.6c0.6-0.6,1.4-1,2.2-1.2
		c0.7-0.1,1.3,0,1.9,0.2c1.3,0.4,2.3,1.1,3.3,2c1.6,1.6,2.6,3.4,3.1,5.6C13.2,22.3,13.3,23.3,13.3,24.2z"/>
</g>
</svg>
